<?xml version="1.0" encoding="utf-8"?>
<!-- Generator: Adobe Illustrator 24.3.0, SVG Export Plug-In . SVG Version: 6.00 Build 0)  -->
<svg version="1.1" id="Layer_1" xmlns="http://www.w3.org/2000/svg" xmlns:xlink="http://www.w3.org/1999/xlink" x="0px" y="0px"
	 viewBox="0 0 45 45" style="enable-background:new 0 0 45 45;" xml:space="preserve">
<style type="text/css">
	.st0{fill:#F3702A;}
	.st1{fill:#FFFFFF;}
	.st2{fill:none;stroke:#F3702A;stroke-width:1.3;stroke-linecap:round;stroke-linejoin:round;stroke-miterlimit:10;}
	.st3{fill:none;stroke:#F3702A;stroke-width:1.3;stroke-linecap:round;stroke-linejoin:round;stroke-miterlimit:2.6131;}
	.st4{fill:none;stroke:#F3702A;stroke-miterlimit:10;}
	
		.st5{display:none;fill:none;stroke:#F3702A;stroke-width:1.3;stroke-linecap:round;stroke-linejoin:round;stroke-miterlimit:2.6131;}
</style>
<g>
	<path class="st0" d="M44.8,22.7c0,12.4-10.1,22.5-22.5,22.5s-22.5-10-22.5-22.5c0-12.4,10.1-22.5,22.5-22.5
		C34.8,0.2,44.8,10.3,44.8,22.7z"/>
</g>
<circle class="st1" cx="22.3" cy="22.5" r="21.1"/>
<g>
	<polygon class="st2" points="31.7,30.9 31.7,10.6 13.3,10.6 13.3,35.5 27.1,35.5 27.1,30.9 	"/>
	<line class="st3" x1="31.7" y1="30.9" x2="27.1" y2="35.5"/>
	<line class="st4" x1="16.2" y1="15.2" x2="28.6" y2="15.2"/>
	<line class="st4" x1="16.2" y1="18.5" x2="28.6" y2="18.5"/>
	<line class="st4" x1="16.2" y1="21.8" x2="28.6" y2="21.8"/>
	<path class="st5" d="M19.5,30.2l-0.1,0.1l-0.5,0.3c-0.3,0.2-0.8,0.1-1-0.3l-0.7-1c-0.2-0.3-0.1-0.8,0.3-1l0.7-0.4l7-4.3l2.1,0.2
		l-0.7,2.1L19.5,30.2"/>
	<polyline class="st5" points="19.5,30.2 19.5,30.2 19.5,30.2 18.8,29.1 18.8,29.1 18.1,27.9 	"/>
	<polyline class="st5" points="26.5,26 25.8,24.8 25.1,23.6 	"/>
</g>
</svg>
