<?xml version="1.0" encoding="utf-8"?>
<!-- Generator: Adobe Illustrator 24.3.0, SVG Export Plug-In . SVG Version: 6.00 Build 0)  -->
<svg version="1.1" id="Layer_1" xmlns="http://www.w3.org/2000/svg" xmlns:xlink="http://www.w3.org/1999/xlink" x="0px" y="0px"
	 viewBox="0 0 45 45" style="enable-background:new 0 0 45 45;" xml:space="preserve">
<style type="text/css">
	.st0{fill:#F3702A;}
	.st1{fill:#FFFFFF;}
</style>
<g>
	<path class="st0" d="M44.8,22.7c0,12.4-10.1,22.5-22.5,22.5s-22.5-10-22.5-22.5c0-12.4,10.1-22.5,22.5-22.5
		C34.8,0.2,44.8,10.3,44.8,22.7z"/>
</g>
<circle class="st1" cx="22.3" cy="22.8" r="21.1"/>
<g>
	<path class="st0" d="M15.4,35.6c-0.2,0-0.4-0.2-0.4-0.4v-2.3c0-0.2,0.2-0.4,0.4-0.4s0.4,0.2,0.4,0.4v2.3
		C15.9,35.4,15.7,35.6,15.4,35.6z"/>
	<path class="st0" d="M13.3,28.1c-1.2,0-2.3-1-2.3-2.3c0-1.2,1-2.3,2.3-2.3c1.2,0,2.3,1,2.3,2.3S14.5,28.1,13.3,28.1z"/>
	<path class="st0" d="M11.2,35.6c-0.2,0-0.4-0.2-0.4-0.4v-2.3c0-0.2,0.2-0.4,0.4-0.4s0.4,0.2,0.4,0.4v2.3
		C11.6,35.4,11.4,35.6,11.2,35.6z"/>
	<path class="st0" d="M25.3,35.6c-0.2,0-0.4-0.2-0.4-0.4v-2.3c0-0.2,0.2-0.4,0.4-0.4c0.2,0,0.4,0.2,0.4,0.4v2.3
		C25.7,35.4,25.5,35.6,25.3,35.6z"/>
	<path class="st0" d="M23.1,28.1c-1.2,0-2.3-1-2.3-2.3c0-1.2,1-2.3,2.3-2.3c1.2,0,2.3,1,2.3,2.3C25.4,27.1,24.4,28.1,23.1,28.1z"/>
	<path class="st0" d="M21,35.6c-0.2,0-0.4-0.2-0.4-0.4v-2.3c0-0.2,0.2-0.4,0.4-0.4c0.2,0,0.4,0.2,0.4,0.4v2.3
		C21.4,35.4,21.2,35.6,21,35.6z"/>
	<path class="st0" d="M35.1,35.6c-0.2,0-0.4-0.2-0.4-0.4v-2.3c0-0.2,0.2-0.4,0.4-0.4s0.4,0.2,0.4,0.4v2.3
		C35.5,35.4,35.3,35.6,35.1,35.6z"/>
	<path class="st0" d="M33,28.1c-1.2,0-2.3-1-2.3-2.3c0-1.2,1-2.3,2.3-2.3c1.2,0,2.3,1,2.3,2.3C35.2,27.1,34.2,28.1,33,28.1z"/>
	<path class="st0" d="M30.8,35.6c-0.2,0-0.4-0.2-0.4-0.4v-2.3c0-0.2,0.2-0.4,0.4-0.4c0.2,0,0.4,0.2,0.4,0.4v2.3
		C31.3,35.4,31.1,35.6,30.8,35.6z"/>
	<path class="st0" d="M17.5,35.6H9.1c-0.2,0-0.4-0.2-0.4-0.4v-3.7c0-1.5,1.1-2.8,2.6-2.9c0.2,0,0.5,0.1,0.5,0.4
		c0,0.2-0.1,0.5-0.4,0.5c-1,0.1-1.8,1-1.8,2.1v3.2H17v-3.3c0-1.1-0.8-1.9-1.8-2.1c-0.2,0-0.4-0.2-0.4-0.5c0-0.2,0.3-0.4,0.5-0.4
		c1.5,0.2,2.6,1.4,2.6,2.9V35C17.9,35.4,17.7,35.6,17.5,35.6z"/>
	<path class="st0" d="M27.3,35.6H19c-0.2,0-0.4-0.2-0.4-0.4v-3.7c0-1.5,1.1-2.8,2.6-2.9c0.2,0,0.5,0.1,0.5,0.4
		c0,0.2-0.1,0.5-0.4,0.5c-1,0.1-1.8,1-1.8,2.1v3.2h7.3v-3.3c0-1.1-0.8-1.9-1.8-2.1c-0.2,0-0.4-0.2-0.4-0.5c0-0.2,0.3-0.4,0.5-0.4
		c1.5,0.2,2.6,1.4,2.6,2.9V35C27.7,35.4,27.5,35.6,27.3,35.6z"/>
	<path class="st0" d="M37.1,35.6h-8.3c-0.2,0-0.4-0.2-0.4-0.4v-3.7c0-1.5,1.1-2.8,2.6-2.9c0.2,0,0.5,0.1,0.5,0.4
		c0,0.2-0.1,0.5-0.4,0.5c-1,0.1-1.8,1-1.8,2.1v3.2h7.4v-3.3c0-1.1-0.8-1.9-1.8-2.1c-0.2,0-0.4-0.2-0.4-0.5c0-0.2,0.3-0.4,0.5-0.4
		c1.5,0.2,2.6,1.4,2.6,2.9V35C37.6,35.4,37.4,35.6,37.1,35.6z"/>
	<path class="st0" d="M21.1,21.1c-0.2,0-0.4-0.2-0.4-0.4v-2.3c0-0.2,0.2-0.4,0.4-0.4c0.2,0,0.4,0.2,0.4,0.4v2.3
		C21.5,20.9,21.3,21.1,21.1,21.1z"/>
	<path class="st0" d="M19,13.6c-1.2,0-2.3-1-2.3-2.3S17.7,9,19,9c1.2,0,2.3,1,2.3,2.3S20.2,13.6,19,13.6z"/>
	<path class="st0" d="M16.8,21.1c-0.2,0-0.4-0.2-0.4-0.4v-2.3c0-0.2,0.2-0.4,0.4-0.4c0.2,0,0.4,0.2,0.4,0.4v2.3
		C17.3,20.9,17.1,21.1,16.8,21.1z"/>
	<path class="st0" d="M15.9,20.2c0,0.5-0.2-0.5,0.3-0.5l-0.9-0.2c0.5,0,0,0,0-0.5v-0.2c0-1.1,6.6-4.2,5.6-4.3
		c-0.2,0-0.4-0.2-0.4-0.5c0-0.2,0.2-0.4,0.5-0.4c1.5,0.2,2.6,1.4,2.6,2.9v2.7c0,0.8-0.6,1.4-1.4,1.4h-6.5c-0.8,0-1.4-0.6-1.4-1.4
		v-2.7c0-1.5,1.1-2.8,2.6-2.9c0.2,0,0.5,0.1,0.5,0.4c0,0.2,5.1,2.9,1.8,1.8"/>
	<path class="st0" d="M25.6,21.1H13.5c-0.2,0-0.4-0.2-0.4-0.4c0-0.2,0.2-0.4,0.4-0.4h12.1c0.2,0,0.4,0.2,0.4,0.4
		C26.1,20.9,25.9,21.1,25.6,21.1z"/>
	<path class="st0" d="M24.9,13.8c-0.1,0-0.1,0-0.2,0c-0.2-0.1-0.3-0.2-0.3-0.4V7.2c0-1.1,0.9-2,2-2h5c1.1,0,2,0.9,2,2V9
		c0,1.1-0.9,2-2,2h-3.9c-0.1,0-0.1,0-0.2,0.1l-2.2,2.5C25.2,13.8,25.1,13.8,24.9,13.8z"/>
	<path class="st0" d="M29.6,8.2c0,0.3-0.2,0.5-0.5,0.5s-0.5-0.2-0.5-0.5s0.2-0.5,0.5-0.5C29.4,7.6,29.6,7.9,29.6,8.2z"/>
	<path class="st0" d="M31.3,8.2c0,0.3-0.2,0.5-0.5,0.5s-0.6-0.2-0.6-0.5s0.2-0.5,0.6-0.5C31.1,7.6,31.3,7.9,31.3,8.2z"/>
	<path class="st0" d="M27.9,8.2c0,0.3-0.2,0.5-0.5,0.5s-0.6-0.2-0.6-0.5s0.2-0.5,0.6-0.5C27.6,7.6,27.9,7.9,27.9,8.2z"/>
</g>
<path class="st0" d="M10.2,35.2c0,0.5-0.2-0.5,0.3-0.5l-0.9-0.2c0.5,0,0,0,0-0.5v-0.2c0-1.1,6.6-4.2,5.6-4.3c-0.2,0-0.4-0.2-0.4-0.5
	c0-0.2,0.2-0.4,0.5-0.4c1.5,0.2,2.6,1.4,2.6,2.9v2.7c0,0.8-0.6,1.4-1.4,1.4h-6.4c-0.8,0-1.4-0.6-1.4-1.4v-2.7c0-1.5,1.1-2.8,2.6-2.9
	c0.2,0,0.5,0.1,0.5,0.4c0,0.2,5.1,2.9,1.8,1.8"/>
<path class="st0" d="M20,35.2c0,0.5-0.2-0.5,0.3-0.5l-0.8-0.2c0.5,0,0,0,0-0.5v-0.2c0-1.1,6.6-4.2,5.6-4.3c-0.2,0-0.4-0.2-0.4-0.5
	c0-0.2,0.2-0.4,0.5-0.4c1.5,0.2,2.6,1.4,2.6,2.9v2.7c0,0.8-0.6,1.4-1.4,1.4h-6.5c-0.8,0-1.4-0.6-1.4-1.4v-2.7c0-1.5,1.1-2.8,2.6-2.9
	c0.2,0,0.5,0.1,0.5,0.4c0,0.2,5.1,2.9,1.8,1.8"/>
<path class="st0" d="M29.8,35.2c0,0.5-0.2-0.5,0.3-0.5l-0.8-0.2c0.5,0,0,0,0-0.5v-0.2c0-1.1,6.6-4.2,5.6-4.3c-0.2,0-0.4-0.2-0.4-0.5
	c0-0.2,0.2-0.4,0.5-0.4c1.5,0.2,2.6,1.4,2.6,2.9v2.7c0,0.8-0.6,1.4-1.4,1.4h-6.5c-0.8,0-1.4-0.6-1.4-1.4v-2.7c0-1.5,1.1-2.8,2.6-2.9
	c0.2,0,0.5,0.1,0.5,0.4c0,0.2,5.1,2.9,1.8,1.8"/>
</svg>
