<?xml version="1.0" encoding="utf-8"?>
<!-- Generator: Adobe Illustrator 24.3.0, SVG Export Plug-In . SVG Version: 6.00 Build 0)  -->
<svg version="1.1" id="Layer_1" xmlns="http://www.w3.org/2000/svg" xmlns:xlink="http://www.w3.org/1999/xlink" x="0px" y="0px"
	 viewBox="0 0 45 45" style="enable-background:new 0 0 45 45;" xml:space="preserve">
<style type="text/css">
	.st0{fill:#F3702A;}
	.st1{fill:#FFFFFF;}
</style>
<g>
	<path class="st0" d="M42.7,32.5c-2,4.8-5.9,8.6-10.7,10.7C12.7,51.4-5.9,33.6,1.4,14C3.5,8.4,8,3.9,13.6,1.8
		C33.2-5.5,51,13.1,42.7,32.5z"/>
</g>
<circle class="st1" cx="22.5" cy="22.5" r="21.1"/>
<g>
	<g>
		<g>
			<path class="st0" d="M35.5,15.4h-7.2c-0.1,0-0.3-0.1-0.3-0.3V9.7c0-0.1,0.1-0.3,0.3-0.3h0.5c0,0,0.1,0,0.1,0.1v0.3l0,0h0.3l0,0
				V9.5c0,0,0-0.1,0.1-0.1h1c0,0,0.1,0,0.1,0.1v0.3l0,0h0.3l0,0V9.5c0,0,0-0.1,0.1-0.1h1c0,0,0.1,0,0.1,0.1v0.3l0,0h0.3l0,0V9.5
				c0,0,0-0.1,0.1-0.1h1c0,0,0.1,0,0.1,0.1v0.3l0,0h0.3l0,0V9.5c0,0,0-0.1,0.1-0.1h1c0,0,0.1,0,0.1,0.1v0.3l0,0h0.3l0,0V9.5
				c0,0,0-0.1,0.1-0.1h0.5c0.1,0,0.3,0.1,0.3,0.3v4.7c0,0,0,0.1-0.1,0.1h-0.9L35.5,15.4C35.6,15.4,35.6,15.4,35.5,15.4z M28.4,9.6
				c-0.1,0-0.1,0.1-0.1,0.1v5.4c0,0.1,0.1,0.1,0.1,0.1h7.1v-0.9c0,0,0-0.1,0.1-0.1h0.9V9.7c0-0.1-0.1-0.1-0.1-0.1H36v0.3
				c0,0.1-0.1,0.2-0.2,0.2h-0.3c-0.1,0-0.2-0.1-0.2-0.2V9.6h-0.9v0.3c0,0.1-0.1,0.2-0.2,0.2h-0.3c-0.1,0-0.2-0.1-0.2-0.2V9.6h-0.9
				v0.3c0,0.1-0.1,0.2-0.2,0.2h-0.3c-0.1,0-0.2-0.1-0.2-0.2V9.6h-0.9v0.3c0,0.1-0.1,0.2-0.2,0.2h-0.3c-0.1,0-0.2-0.1-0.2-0.2V9.6
				h-0.9v0.3c0,0.1-0.1,0.2-0.2,0.2H29c-0.1,0-0.2-0.1-0.2-0.2V9.6H28.4z"/>
		</g>
		<g>
			<path class="st0" d="M36.5,10.9h-8.3c0,0-0.1,0-0.1-0.1c0,0,0-0.1,0.1-0.1h8.3C36.5,10.7,36.5,10.7,36.5,10.9
				C36.5,10.8,36.5,10.9,36.5,10.9z"/>
		</g>
		<g>
			<path class="st0" d="M29.3,10H29c-0.1,0-0.2-0.1-0.2-0.2V9.2C28.8,9.1,28.9,9,29,9h0.3c0.1,0,0.2,0.1,0.2,0.2v0.7
				C29.5,10,29.4,10,29.3,10z M29,9.1C29,9.1,28.9,9.1,29,9.1v0.7l0,0h0.3l0,0V9.2l0,0L29,9.1L29,9.1z"/>
		</g>
		<g>
			<path class="st0" d="M30.9,10h-0.3c-0.1,0-0.2-0.1-0.2-0.2V9.2c0-0.1,0.1-0.2,0.2-0.2h0.3c0.1,0,0.2,0.1,0.2,0.2v0.7
				C31.1,10,31,10,30.9,10z M30.6,9.1C30.5,9.1,30.5,9.2,30.6,9.1v0.7l0,0h0.3l0,0V9.2l0,0L30.6,9.1L30.6,9.1z"/>
		</g>
		<g>
			<path class="st0" d="M32.5,10h-0.3C32.1,10,32,9.9,32,9.8V9.2C32,9.1,32.1,9,32.2,9h0.3c0.1,0,0.2,0.1,0.2,0.2v0.7
				C32.7,10,32.6,10,32.5,10z M32.1,9.1C32.1,9.1,32.1,9.2,32.1,9.1v0.7l0,0h0.3l0,0V9.2l0,0L32.1,9.1L32.1,9.1z"/>
		</g>
		<g>
			<path class="st0" d="M34.1,10h-0.3c-0.1,0-0.2-0.1-0.2-0.2V9.2c0-0.1,0.1-0.2,0.2-0.2h0.3c0.1,0,0.2,0.1,0.2,0.2v0.7
				C34.3,10,34.2,10,34.1,10z M33.7,9.1C33.7,9.1,33.7,9.2,33.7,9.1v0.7l0,0H34l0,0V9.2l0,0L33.7,9.1L33.7,9.1z"/>
		</g>
		<g>
			<path class="st0" d="M35.7,10h-0.3c-0.1,0-0.2-0.1-0.2-0.2V9.2c0-0.1,0.1-0.2,0.2-0.2h0.3c0.1,0,0.2,0.1,0.2,0.2v0.7
				C35.8,10,35.8,10,35.7,10z M35.3,9.1L35.3,9.1v0.7l0,0h0.3l0,0V9.2l0,0L35.3,9.1L35.3,9.1z"/>
		</g>
		<g>
			<path class="st0" d="M35.6,15.4C35.5,15.4,35.5,15.4,35.6,15.4c-0.1,0-0.1-0.1,0-0.1l0.9-0.9h0.1v0.1L35.6,15.4L35.6,15.4z"/>
		</g>
		<g>
			<path class="st0" d="M30.4,12.1h-1.5c0,0-0.1,0-0.1-0.1c0,0,0-0.1,0.1-0.1h1.5C30.4,12,30.5,12,30.4,12.1
				C30.5,12.1,30.4,12.1,30.4,12.1z"/>
		</g>
		<g>
			<path class="st0" d="M33,12.1h-1.5c0,0-0.1,0-0.1-0.1c0,0,0-0.1,0.1-0.1H33C33.1,12,33.1,12,33,12.1C33.1,12.1,33.1,12.1,33,12.1
				z"/>
		</g>
		<g>
			<path class="st0" d="M35.7,12.1h-1.5c0,0-0.1,0-0.1-0.1c0,0,0-0.1,0.1-0.1h1.5C35.7,12,35.8,12,35.7,12.1
				C35.8,12.1,35.7,12.1,35.7,12.1z"/>
		</g>
		<g>
			<path class="st0" d="M30.4,13.1h-1.5c0,0-0.1,0-0.1-0.1c0,0,0-0.1,0.1-0.1h1.5C30.4,13,30.5,13,30.4,13.1
				C30.5,13.1,30.4,13.1,30.4,13.1z"/>
		</g>
		<g>
			<path class="st0" d="M33,13.1h-1.5c0,0-0.1,0-0.1-0.1c0,0,0-0.1,0.1-0.1H33C33.1,13,33.1,13,33,13.1C33.1,13.1,33.1,13.1,33,13.1
				z"/>
		</g>
		<g>
			<path class="st0" d="M35.7,13.1h-1.5c0,0-0.1,0-0.1-0.1c0,0,0-0.1,0.1-0.1h1.5C35.7,13,35.8,13,35.7,13.1
				C35.8,13.1,35.7,13.1,35.7,13.1z"/>
		</g>
		<g>
			<path class="st0" d="M30.4,14.2h-1.5c0,0-0.1,0-0.1-0.1c0,0,0-0.1,0.1-0.1h1.5C30.4,14,30.5,14.1,30.4,14.2
				C30.5,14.1,30.4,14.2,30.4,14.2z"/>
		</g>
		<g>
			<path class="st0" d="M33,14.2h-1.5c0,0-0.1,0-0.1-0.1c0,0,0-0.1,0.1-0.1H33C33.1,14,33.1,14.1,33,14.2
				C33.1,14.1,33.1,14.2,33,14.2z"/>
		</g>
		<g>
			<path class="st0" d="M35.7,14.2h-1.5c0,0-0.1,0-0.1-0.1c0,0,0-0.1,0.1-0.1h1.5C35.7,14,35.8,14.1,35.7,14.2
				C35.8,14.1,35.7,14.2,35.7,14.2z"/>
		</g>
	</g>
</g>
<g>
	<g>
		<g>
			<path class="st0" d="M11.8,34.1h21.1v-1.2H11.8V34.1z"/>
		</g>
		<g>
			<path class="st0" d="M31.7,32.9H13.1c-0.1,0-0.2-0.1-0.2-0.2v-1.6c0-0.1,0.1-0.2,0.2-0.2h18.6c0.1,0,0.2,0.1,0.2,0.2v1.6
				C31.8,32.8,31.8,32.9,31.7,32.9z"/>
		</g>
		<g>
			<path class="st0" d="M32.8,19.9L32.8,19.9H11.9c-0.1,0-0.2-0.1-0.2-0.1c0-0.1,0-0.2,0.1-0.2l10.4-6c0.1,0,0.1,0,0.2,0l10.4,6
				c0.1,0,0.1,0.1,0.1,0.2C33,19.8,32.9,19.9,32.8,19.9z"/>
		</g>
		<g>
			<path class="st0" d="M23.4,31.3h-1.9c-0.1,0-0.2-0.1-0.2-0.2V21c0-0.1,0.1-0.2,0.2-0.2h1.9c0.1,0,0.2,0.1,0.2,0.2v10.1
				C23.6,31.2,23.5,31.3,23.4,31.3z"/>
		</g>
		<g>
			<path class="st0" d="M16.4,31.3h-1.9c-0.1,0-0.2-0.1-0.2-0.2V21c0-0.1,0.1-0.2,0.2-0.2h1.9c0.1,0,0.2,0.1,0.2,0.2v10.1
				C16.6,31.2,16.5,31.3,16.4,31.3z"/>
		</g>
		<g>
			<path class="st0" d="M30.4,31.3h-1.9c-0.1,0-0.2-0.1-0.2-0.2V21c0-0.1,0.1-0.2,0.2-0.2h1.9c0.1,0,0.2,0.1,0.2,0.2v10.1
				C30.6,31.2,30.5,31.3,30.4,31.3z"/>
		</g>
		<g>
			<path class="st0" d="M17.1,21.2h-3.2c-0.1,0-0.2-0.1-0.2-0.2v-1.3c0-0.1,0.1-0.2,0.2-0.2h3.2c0.1,0,0.2,0.1,0.2,0.2V21
				C17.2,21.1,17.2,21.2,17.1,21.2z"/>
		</g>
		<g>
			<path class="st0" d="M21,20.8h2.9v-1H21V20.8z"/>
		</g>
		<g>
			<path class="st0" d="M31.1,21.2h-3.2c-0.1,0-0.2-0.1-0.2-0.2v-1.3c0-0.1,0.1-0.2,0.2-0.2h3.2c0.1,0,0.2,0.1,0.2,0.2V21
				C31.3,21.1,31.2,21.2,31.1,21.2z"/>
		</g>
		<g>
			<path class="st1" d="M22.4,18.9c-0.7,0-1.4-0.6-1.4-1.4c0-0.7,0.6-1.4,1.4-1.4c0.7,0,1.4,0.6,1.4,1.4
				C23.7,18.3,23.1,18.9,22.4,18.9z"/>
		</g>
	</g>
</g>
</svg>
