<?xml version="1.0" encoding="utf-8"?>
<!-- Generator: Adobe Illustrator 24.3.0, SVG Export Plug-In . SVG Version: 6.00 Build 0)  -->
<svg version="1.1" id="Layer_1" xmlns="http://www.w3.org/2000/svg" xmlns:xlink="http://www.w3.org/1999/xlink" x="0px" y="0px"
	 viewBox="0 0 45 45" style="enable-background:new 0 0 45 45;" xml:space="preserve">
<style type="text/css">
	.st0{fill:#F3702A;}
	.st1{fill:#FFFFFF;}
</style>
<g>
	<path class="st0" d="M44.8,22.7c0,12.4-10.1,22.5-22.5,22.5s-22.5-10-22.5-22.5c0-12.4,10.1-22.5,22.5-22.5
		C34.8,0.2,44.8,10.3,44.8,22.7z"/>
</g>
<g>
	<path class="st0" d="M35,31.2c-2.4,0-4.3-2-4.3-4.3c0-2.4,2-4.3,4.3-4.3c2.4,0,4.3,2,4.3,4.3C39.4,29.3,37.4,31.2,35,31.2z"/>
	<path class="st0" d="M35,33c-3.4,0-6.2-2.8-6.2-6.2s2.8-6.2,6.2-6.2s6.2,2.8,6.2,6.2C41.2,30.3,38.4,33,35,33z M35,21.7
		c-2.8,0-5.1,2.3-5.1,5.1s2.3,5.1,5.1,5.1s5.1-2.3,5.1-5.1C40.2,24,37.9,21.7,35,21.7z"/>
	<path class="st0" d="M35,40.6c-0.9,0-1.7-0.8-1.7-1.7v-6.5c0-0.2,0.1-0.3,0.2-0.4c0.1-0.1,0.3-0.1,0.4-0.1c0.7,0.1,1.4,0.1,2.1,0
		c0.2,0,0.3,0,0.4,0.1c0.1,0.1,0.2,0.2,0.2,0.4v6.5C36.7,39.8,36,40.6,35,40.6z"/>
	<path class="st0" d="M38.3,22.8c-0.3,0-0.5-0.2-0.5-0.5v-7.2c0-0.3-0.3-0.6-0.6-0.6h-0.7v6.8c0,0.3-0.2,0.5-0.5,0.5
		s-0.5-0.2-0.5-0.5V14c0-0.3,0.2-0.5,0.5-0.5h1.2c0.9,0,1.6,0.7,1.6,1.6v7.2C38.9,22.6,38.6,22.8,38.3,22.8z"/>
	<path class="st0" d="M32.5,31.4c0.3,0,0.5,0.2,0.5,0.5s-0.2,0.5-0.5,0.5H7.9c-0.9,0-1.6-0.7-1.6-1.6V15.1c0-0.9,0.7-1.6,1.6-1.6
		h1.2c0.3,0,0.5,0.2,0.5,0.5v15.5c0,0.3-0.2,0.5-0.5,0.5s-0.5-0.2-0.5-0.5v-15H7.9c-0.3,0-0.6,0.3-0.6,0.6v15.7
		c0,0.3,0.3,0.6,0.6,0.6"/>
	<path class="st0" d="M22.6,29.9c-0.3,0-0.5-0.2-0.5-0.5V13c0-0.3,0.2-0.5,0.5-0.5s0.5,0.2,0.5,0.5v16.4
		C23.1,29.7,22.8,29.9,22.6,29.9z"/>
	<path class="st0" d="M20.5,26.9c1.3,0,0.5,3.1,0.5,4.3c0,0.1-0.7,0.8,0,0l2.8,0.2c0.1,0-2.8-0.1-2.8-0.2c0-1.3-1,1.3,0.2,1.3
		l-5-13.7c0.3,0,14.3,10.3,14.3,10.6c0,0.3-0.2,0.5-0.5,0.5h-3.6c-0.7,0-1.3,0.6-1.3,1.3c0,0.7-0.6,1.3-1.3,1.3h-2.5
		c-0.7,0-1.3-0.6-1.3-1.3c0-0.7-0.6-1.3-1.3-1.3H9.1c-0.3,0-0.5-0.2-0.5-0.5V12.3c0-0.3,0.2-0.5,0.5-0.5h7.4c1.6,0,3.3,0.2,4.9,0.5
		l1.2,0.2l1.2-0.2c1.6-0.3,3.2-0.5,4.9-0.5h7.4c0.3,0,0.5,0.2,0.5,0.5v9c0,0.3-0.2,0.5-0.5,0.5s-7.9-3.7-7.9-4l7.4-5h-6.9
		c-1.6,0-3.1,0.2-4.7,0.5l-1.3,0.2c-0.1,0-0.1,0-0.2,0l-1.3-0.3c-1.5-0.3-3.1-0.4-4.7-0.4H9.6h25.9"/>
	<path class="st0" d="M30.1,24.5L29,28.1c-0.3,0-7-1-7-1.3s-1.3-9.8,2.3-8l4.5-1.5c0.3,0,6.2,0.5,6.2,0.8S30.4,24.5,30.1,24.5z"/>
</g>
<circle class="st1" cx="22.5" cy="22.7" r="21.1"/>
<g>
	<path class="st0" d="M34.3,31.2c-2.4,0-4.3-2-4.3-4.3c0-2.4,2-4.3,4.3-4.3c2.4,0,4.3,2,4.3,4.3C38.7,29.3,36.7,31.2,34.3,31.2z"/>
	<path class="st0" d="M34.3,33c-3.4,0-6.2-2.8-6.2-6.2s2.8-6.2,6.2-6.2s6.2,2.8,6.2,6.2C40.5,30.3,37.7,33,34.3,33z M34.3,21.7
		c-2.8,0-5.1,2.3-5.1,5.1s2.3,5.1,5.1,5.1c2.8,0,5.1-2.3,5.1-5.1C39.5,24,37.2,21.7,34.3,21.7z"/>
	<path class="st0" d="M34.3,40.6c-0.9,0-1.7-0.8-1.7-1.7v-6.5c0-0.2,0.1-0.3,0.2-0.4c0.1-0.1,0.3-0.1,0.4-0.1c0.7,0.1,1.4,0.1,2.1,0
		c0.2,0,0.3,0,0.4,0.1c0.1,0.1,0.2,0.2,0.2,0.4v6.5C36,39.8,35.3,40.6,34.3,40.6z"/>
	<path class="st0" d="M37.6,22.8c-0.3,0-0.5-0.2-0.5-0.5v-7.2c0-0.3-0.3-0.6-0.6-0.6h-0.7v6.8c0,0.3-0.2,0.5-0.5,0.5
		s-0.5-0.2-0.5-0.5V14c0-0.3,0.2-0.5,0.5-0.5h1.2c0.9,0,1.6,0.7,1.6,1.6v7.2C38.2,22.6,37.9,22.8,37.6,22.8z"/>
	<path class="st0" d="M31.8,31.4c0.3,0,0.5,0.2,0.5,0.5s-0.2,0.5-0.5,0.5H7.2c-0.9,0-1.6-0.7-1.6-1.6V15.1c0-0.9,0.7-1.6,1.6-1.6
		h1.2c0.3,0,0.5,0.2,0.5,0.5v15.5c0,0.3-0.2,0.5-0.5,0.5s-0.5-0.2-0.5-0.5v-15H7.2c-0.3,0-0.6,0.3-0.6,0.6v15.7
		c0,0.3,0.3,0.6,0.6,0.6"/>
	<path class="st0" d="M21.9,29.9c-0.3,0-0.5-0.2-0.5-0.5V13c0-0.3,0.2-0.5,0.5-0.5s0.5,0.2,0.5,0.5v16.4
		C22.4,29.7,22.1,29.9,21.9,29.9z"/>
	<path class="st0" d="M19.8,26.9c1.3,0,0.5,3.1,0.5,4.3c0,0.1-0.7,0.8,0,0l2.8,0.2c0.1,0-2.8-0.1-2.8-0.2c0-1.3-1,1.3,0.2,1.3
		l-5-13.7c0.3,0,14.3,10.3,14.3,10.6c0,0.3-0.2,0.5-0.5,0.5h-3.6c-0.7,0-1.3,0.6-1.3,1.3c0,0.7-0.6,1.3-1.3,1.3h-2.5
		c-0.7,0-1.3-0.6-1.3-1.3c0-0.7-0.6-1.3-1.3-1.3H8.4c-0.3,0-0.5-0.2-0.5-0.5V12.3c0-0.3,0.2-0.5,0.5-0.5h7.4c1.6,0,3.3,0.2,4.9,0.5
		l1.2,0.2l1.2-0.2c1.6-0.3,3.2-0.5,4.9-0.5h7.4c0.3,0,0.5,0.2,0.5,0.5v9c0,0.3-0.2,0.5-0.5,0.5s-7.9-3.7-7.9-4l7.4-5H28
		c-1.6,0-3.1,0.2-4.7,0.5L22,13.5c-0.1,0-0.1,0-0.2,0l-1.3-0.3c-1.5-0.3-3.1-0.4-4.7-0.4H8.9h25.9"/>
	<path class="st1" d="M18.2,16h-6.9c-0.3,0-0.5-0.2-0.5-0.5S11,15,11.3,15h6.9c0.3,0,0.5,0.2,0.5,0.5C18.7,15.7,18.5,16,18.2,16z"/>
	<path class="st0" d="M18.2,18.8h-6.9c-0.3,0-0.5-0.2-0.5-0.5s0.2-0.5,0.5-0.5h6.9c0.3,0,0.5,0.2,0.5,0.5S18.5,18.8,18.2,18.8z"/>
	<path class="st0" d="M18.2,21.7h-6.9c-0.3,0-0.5-0.2-0.5-0.5s0.2-0.5,0.5-0.5h6.9c0.3,0,0.5,0.2,0.5,0.5
		C18.7,21.5,18.5,21.7,18.2,21.7z"/>
	<path class="st0" d="M18.2,24.5h-6.9c-0.3,0-0.5-0.2-0.5-0.5s0.2-0.5,0.5-0.5h6.9c0.3,0,0.5,0.2,0.5,0.5S18.5,24.5,18.2,24.5z"/>
	<path class="st0" d="M32.4,16h-6.9c-0.3,0-0.5-0.2-0.5-0.5s0.2-0.5,0.5-0.5h6.9c0.3,0,0.5,0.2,0.5,0.5C32.9,15.7,32.7,16,32.4,16z"
		/>
	<path class="st0" d="M32.4,18.8h-6.9c-0.3,0-0.5-0.2-0.5-0.5s0.2-0.5,0.5-0.5h6.9c0.3,0,0.5,0.2,0.5,0.5S32.7,18.8,32.4,18.8z"/>
	<path class="st0" d="M34,21.7h-8.5c-0.3,0-0.5-0.2-0.5-0.5s0.2-0.5,0.5-0.5H34c0.3,0,0.5,0.2,0.5,0.5C34.6,21.5,34.3,21.7,34,21.7z
		"/>
	<path class="st0" d="M29.4,24.5l-1.1,3.6c-0.3,0-7-1-7-1.3s-1.3-9.8,2.3-8l4.5-1.5c0.3,0,6.2,0.5,6.2,0.8S29.7,24.5,29.4,24.5z"/>
	<path class="st1" d="M18.2,19.8h-6.9c-0.3,0-0.5-0.2-0.5-0.5c0-0.3,0.2-0.5,0.5-0.5h6.9c0.3,0,0.5,0.2,0.5,0.5
		C18.7,19.5,18.5,19.8,18.2,19.8z"/>
	<path class="st1" d="M31.2,16h-6.9c-0.3,0-0.5-0.2-0.5-0.5S24,15,24.3,15h6.9c0.3,0,0.5,0.2,0.5,0.5C31.7,15.7,31.5,16,31.2,16z"/>
	<path class="st1" d="M31.6,19.8h-6.9c-0.3,0-0.5-0.2-0.5-0.5c0-0.3,0.2-0.5,0.5-0.5h6.9c0.3,0,0.5,0.2,0.5,0.5
		C32.1,19.5,31.9,19.8,31.6,19.8z"/>
</g>
</svg>
