<svg id="Layer_1" data-name="Layer 1" xmlns="http://www.w3.org/2000/svg" viewBox="0 0 461.26 461.26"><defs><style>.cls-1{fill:#fff;stroke:#f3702a;stroke-miterlimit:10;stroke-width:10px;}.cls-2{fill:#f3702a;}</style></defs><title>Girl</title><circle class="cls-1" cx="230.63" cy="230.63" r="225.63"/><path class="cls-2" d="M350.48,457.51c-1.55-10.3-7.14-44.45-14-51.32-5.1-5.11-62.84-20.19-66.29-31.46,14.93-7.84,25.95-21.71,32.69-40.89a9.85,9.85,0,0,0,3.63,7.61c-9.64,14.45-12.05,25.41-7.33,33.41,5.29,9,34.33,9.19,35.06,8.05a4.54,4.54,0,0,0,.46-3.85c-.09-.25-8.13-24.32-9-37a10,10,0,0,0,4.41-8.28,11.7,11.7,0,0,0-4-9.14c7.13-46,1.36-80.45-17.21-102.29-15.5-18.24-39.41-27.49-71.07-27.49-32.43,0-55.36,8.46-70.1,25.89-18,21.29-23.08,54.8-15.54,102.3a11.78,11.78,0,0,0-6.28,10.73c0,4.5,2.9,8.12,7.4,9.84-.43,9.06-6.74,26-12.49,33.87a4.5,4.5,0,0,0-.54,4.46c.64,1.47,29.49.61,35.45-7.4C181,367.47,180,355.77,170,341a9.76,9.76,0,0,0,2.9-5.33c6.36,18,17.92,31.69,33.82,39.49-4.46,10.66-60.78,26.36-65.47,31.08-6.6,6.61-13.1,40.86-14.93,51.19a4.54,4.54,0,0,0,3.67,5.23,6.68,6.68,0,0,0,.77.07h101.6V418.91l-54.54,16.32,6.61-35.59c7.11-2.29,13.94-4.92,19.3-8.19,3.09,7,12.79,16.19,34.31,16.19,22.52,0,30.92-9.76,34.12-16.67,4.61,3,10.47,5.41,16.85,7.51l7.66,36.71L242.36,419v43.72H346a4.53,4.53,0,0,0,4.51-4.52q0-.33,0-.66ZM176.37,300.34c0-.49,18.6-8.89,22-32.94,5.68,5.26,19.09,15.53,42.72,22.17,29.53,8.3,50.65,9.6,59.76,9.68-3.28,35.75-25.39,73.65-63,73.65-37.85,0-61.55-38.92-61.55-72.56Zm60.92,102.19c-20.42,0-27.44-9-29.28-14.12.14-.11,6.57-5,8.07-11.72a80.41,80.41,0,0,0,44.31,0c1.06,2.52,4.39,8.55,7.65,11.12-1.73,5.17-8.91,14.73-30.75,14.73Z" transform="translate(-12.63 -82.88)"/><path class="cls-2" d="M354.93,179.1a19.55,19.55,0,0,0-19.33-19.73h-.21a19.53,19.53,0,0,0-19.52,19.32v.62h0a19.36,19.36,0,0,0,5.86,13.57l1.37-1.4-1.37,1.4a19.47,19.47,0,0,0,13.45,5.56h.22a19.43,19.43,0,0,0,13.33-5.27l-1.34-1.43,1.34,1.43h0a19.44,19.44,0,0,0,6.17-13.44v-.61Zm-3.93.46a15.62,15.62,0,0,1-31.22-.34v-.5a15.63,15.63,0,0,1,15.61-15.47h.17A15.62,15.62,0,0,1,351,179v.56Z" transform="translate(-12.63 -82.88)"/><path class="cls-2" d="M335.15,201.75h0a2,2,0,0,0-2,1.94L333,214.53a2,2,0,0,0,1.92,2h0a2,2,0,0,0,2-1.94l.12-10.83a2,2,0,0,0-1.93-2Z" transform="translate(-12.63 -82.88)"/><path class="cls-2" d="M335.64,156h0a2,2,0,0,0,2-1.94l.12-10.84a2,2,0,0,0-1.92-2h0a2,2,0,0,0-1.95,1.95L333.71,154a2,2,0,0,0,1.92,2h0Z" transform="translate(-12.63 -82.88)"/><path class="cls-2" d="M310.57,181.13a2,2,0,1,0,.84-3.91,2,2,0,0,0-.84,0h0l-10.83-.12h0a2,2,0,0,0,0,3.92l10.84.12Z" transform="translate(-12.63 -82.88)"/><path class="cls-2" d="M371.06,177.87l-10.83-.12h0a2,2,0,0,0-1.39.57,1.93,1.93,0,0,0-.58,1.38,2,2,0,0,0,1.95,2h0l10.83.12h0a2,2,0,1,0,.2-3.92h-.18Z" transform="translate(-12.63 -82.88)"/><path class="cls-2" d="M353.41,163.77a2,2,0,0,0,1.37-.54l7.74-7.59a2,2,0,0,0-2.16-3.36,1.82,1.82,0,0,0-.58.56L352,160.41a2,2,0,0,0,1.41,3.36Z" transform="translate(-12.63 -82.88)"/><path class="cls-2" d="M316.56,195.13l-7.74,7.58a2,2,0,0,0,2.74,2.8l7.74-7.58a2,2,0,0,0-2.16-3.36A1.82,1.82,0,0,0,316.56,195.13Z" transform="translate(-12.63 -82.88)"/><path class="cls-2" d="M316.36,162.79a2,2,0,0,0,3.36-2.16,1.82,1.82,0,0,0-.56-.58l-7.6-7.74h0a2,2,0,0,0-2.8,2.74h0Z" transform="translate(-12.63 -82.88)"/><path class="cls-2" d="M353.88,195.53a2,2,0,0,0-2.8,2.74h0l7.57,7.75a2,2,0,0,0,3.36-2.16,1.82,1.82,0,0,0-.56-.58Z" transform="translate(-12.63 -82.88)"/></svg>