<?xml version="1.0" encoding="utf-8"?>
<!-- Generator: Adobe Illustrator 24.3.0, SVG Export Plug-In . SVG Version: 6.00 Build 0)  -->
<svg version="1.1" id="Layer_1" xmlns="http://www.w3.org/2000/svg" xmlns:xlink="http://www.w3.org/1999/xlink" x="0px" y="0px"
	 viewBox="0 0 45 45" style="enable-background:new 0 0 45 45;" xml:space="preserve">
<style type="text/css">
	.st0{fill:#F3702A;}
	.st1{fill:#FFFFFF;}
</style>
<g>
	<path class="st0" d="M44.8,22.7c0,12.4-10.1,22.5-22.5,22.5s-22.5-10-22.5-22.5c0-12.4,10.1-22.5,22.5-22.5
		C34.8,0.2,44.8,10.3,44.8,22.7z"/>
</g>
<circle class="st1" cx="22.3" cy="22.7" r="21.1"/>
<g>
	<g>
		<g>
			<path class="st0" d="M39.4,33.5h-26c-0.1,0-0.2-0.1-0.2-0.2v-1.9c0-0.1,0.1-0.2,0.2-0.2h26c0.1,0,0.2,0.1,0.2,0.2v1.9
				C39.6,33.5,39.5,33.5,39.4,33.5z M13.6,33.2h25.5v-1.5H13.6V33.2z"/>
		</g>
		<g>
			<path class="st0" d="M37.6,31.7H15.1c-0.1,0-0.2-0.1-0.2-0.2v-1.9c0-0.1,0.1-0.2,0.2-0.2h22.6c0.1,0,0.2,0.1,0.2,0.2v1.9
				C37.9,31.6,37.8,31.7,37.6,31.7z"/>
		</g>
		<g>
			<path class="st0" d="M39,15.9L39,15.9H13.7c-0.1,0-0.2-0.1-0.2-0.2c0-0.1,0-0.2,0.1-0.2l12.6-7.3c0.1,0,0.1,0,0.2,0l12.7,7.3
				c0.1,0,0.1,0.1,0.1,0.2C39.2,15.8,39.1,15.9,39,15.9z"/>
		</g>
		<g>
			<path class="st0" d="M27.6,29.7h-2.3c-0.1,0-0.2-0.1-0.2-0.2V17.3c0-0.1,0.1-0.2,0.2-0.2h2.3c0.1,0,0.2,0.1,0.2,0.2v12.2
				C27.9,29.6,27.8,29.7,27.6,29.7z"/>
		</g>
		<g>
			<path class="st0" d="M19.1,29.7h-2.3c-0.1,0-0.2-0.1-0.2-0.2V17.3c0-0.1,0.1-0.2,0.2-0.2h2.3c0.1,0,0.2,0.1,0.2,0.2v12.2
				C19.3,29.6,19.3,29.7,19.1,29.7z M17,29.3h1.9V17.5H17V29.3z"/>
		</g>
		<g>
			<path class="st0" d="M36.1,29.7h-2.3c-0.1,0-0.2-0.1-0.2-0.2V17.3c0-0.1,0.1-0.2,0.2-0.2h2.3c0.1,0,0.2,0.1,0.2,0.2v12.2
				C36.4,29.6,36.3,29.7,36.1,29.7z M34.1,29.3H36V17.5h-1.9V29.3z"/>
		</g>
		<g>
			<path class="st0" d="M19.9,17.5H16c-0.1,0-0.2-0.1-0.2-0.2v-1.6c0-0.1,0.1-0.2,0.2-0.2h3.9c0.1,0,0.2,0.1,0.2,0.2v1.6
				C20.2,17.4,20.1,17.5,19.9,17.5z"/>
		</g>
		<g>
			<path class="st0" d="M28.4,17.5h-3.9c-0.1,0-0.2-0.1-0.2-0.2v-1.6c0-0.1,0.1-0.2,0.2-0.2h3.9c0.1,0,0.2,0.1,0.2,0.2v1.6
				C28.7,17.4,28.6,17.5,28.4,17.5z"/>
		</g>
		<g>
			<path class="st0" d="M37,17.5h-3.9c-0.1,0-0.2-0.1-0.2-0.2v-1.6c0-0.1,0.1-0.2,0.2-0.2H37c0.1,0,0.2,0.1,0.2,0.2v1.6
				C37.2,17.4,37.1,17.5,37,17.5z"/>
		</g>
		<g>
			<path class="st0" d="M26.4,14.7c-0.9,0-1.6-0.7-1.6-1.6c0-0.9,0.7-1.6,1.6-1.6s1.6,0.7,1.6,1.6S27.3,14.7,26.4,14.7z M26.4,11.8
				c-0.7,0-1.2,0.5-1.2,1.2s0.5,1.2,1.2,1.2s1.2-0.5,1.2-1.2C27.6,12.4,27,11.8,26.4,11.8z"/>
		</g>
	</g>
</g>
<g>
	<g>
		<path class="st0" d="M7.5,30.8c-0.2-1.8,0.7-2.9,1-3.3c0.3,1.9,1.9,3.3,3.9,3.3c1.9,0,3.4-1.3,3.9-3c0.3,0.6,0.9,1.7,0.7,3
			c3.3,0,1.7-3.8-0.6-4.2c0-0.2,0-0.4-0.1-0.6c-0.1-1.2-1.2-3.6-4.3-3.6c-2.6,0.1-3.2,2.1-3.4,3.3c-0.1,0.3-0.2,0.6-0.2,0.9
			C5,27.3,5.4,30.8,7.5,30.8z M10.5,25.8c0,0,0.3,0.1,0.3,1.2c0.6,0.2,1.6-1.7,1.6-1.7v1.5c0.6,0.2,2.7-0.1,2.7-0.1l0.1,0.1v0.1
			c0,1.6-1.3,2.9-2.8,2.9S9.6,28.5,9.6,27C10.1,26.8,10.5,25.8,10.5,25.8z"/>
		<polygon class="st0" points="13.3,31.4 11.6,31.4 10.2,31.4 6.1,36.3 7,37.5 10,34 10.2,35.4 9.7,36.6 15.2,36.6 14.5,35.4 
			14.6,33.7 17,36.9 18.6,36.5 14.8,31.4 		"/>
	</g>
</g>
</svg>
