<?xml version="1.0" encoding="utf-8"?>
<!-- Generator: Adobe Illustrator 24.3.0, SVG Export Plug-In . SVG Version: 6.00 Build 0)  -->
<svg version="1.1" id="Layer_1" xmlns="http://www.w3.org/2000/svg" xmlns:xlink="http://www.w3.org/1999/xlink" x="0px" y="0px"
	 viewBox="0 0 45 45" style="enable-background:new 0 0 45 45;" xml:space="preserve">
<style type="text/css">
	.st0{fill:#F3702A;}
	.st1{fill:#FFFFFF;}
</style>
<g>
	<path class="st0" d="M44.8,22.7c0,12.4-10.1,22.5-22.5,22.5s-22.5-10-22.5-22.5c0-12.4,10.1-22.5,22.5-22.5
		C34.8,0.2,44.8,10.3,44.8,22.7z"/>
</g>
<circle class="st1" cx="22.3" cy="22.5" r="21.1"/>
<g>
	<path class="st0" d="M27.5,7.1c-1.3,0-2.3,1-2.3,2.3s1,2.3,2.3,2.3s2.3-1,2.3-2.3S28.8,7.1,27.5,7.1z"/>
	<path class="st0" d="M27.5,7.7c-1,0-1.7,0.8-1.7,1.7c0,0.2,0,0.2,0.1,0.2S26,9.5,26,9.5C26,8.7,26.7,8,27.5,8
		c0.1,0,0.1-0.1,0.1-0.1C27.7,7.8,27.6,7.7,27.5,7.7z"/>
	<path class="st0" d="M27.5,5.9c-0.1,0-0.1,0.1-0.1,0.1v0.7c0,0.1,0.1,0.1,0.1,0.1c0.1,0,0.1-0.1,0.1-0.1V6
		C27.7,5.9,27.6,5.9,27.5,5.9z"/>
	<path class="st0" d="M27.5,5.7c0.1,0,0.2-0.1,0.2-0.2s-0.1-0.2-0.2-0.2s-0.2,0.1-0.2,0.2S27.4,5.7,27.5,5.7z"/>
	<path class="st0" d="M25.5,7.7h0.1h0.1c0.1-0.1,0.1-0.2,0-0.2L25.2,7C25.1,6.9,25,6.9,25,7c-0.1,0.1-0.1,0.2,0,0.2L25.5,7.7z"/>
	<path class="st0" d="M24.8,6.8c0.1-0.1,0.1-0.2,0-0.3c-0.1-0.1-0.2-0.1-0.3,0c-0.1,0.1-0.1,0.2,0,0.3C24.6,6.9,24.8,6.9,24.8,6.8z"
		/>
	<path class="st0" d="M24.8,9.3h-0.7C24,9.3,24,9.4,24,9.4s0,0.2,0.1,0.2h0.7c0.1,0,0.1-0.1,0.1-0.1S24.9,9.3,24.8,9.3z"/>
	<path class="st0" d="M23.5,9.3c-0.1,0-0.2,0.1-0.2,0.2s0.1,0.2,0.2,0.2s0.2-0.1,0.2-0.2S23.7,9.3,23.5,9.3z"/>
	<path class="st0" d="M25.5,11.3L25,11.8c-0.1,0.1-0.1,0.2,0,0.2h0.1h0.1l0.5-0.5c0.1-0.1,0.1-0.2,0-0.2
		C25.6,11.2,25.6,11.2,25.5,11.3z"/>
	<path class="st0" d="M24.6,12.1c-0.1,0.1-0.1,0.2,0,0.3s0.2,0.1,0.3,0c0.1-0.1,0.1-0.2,0-0.3C24.8,12.1,24.6,12.1,24.6,12.1z"/>
	<path class="st0" d="M27.5,13.1c0.1,0,0.1-0.1,0.1-0.1v-0.7c0-0.1-0.1-0.1-0.1-0.1c-0.1,0-0.1,0.1-0.1,0.1V13
		C27.4,13,27.4,13.1,27.5,13.1z"/>
	<path class="st0" d="M27.5,13.3c-0.1,0-0.2,0.1-0.2,0.2s0.1,0.2,0.2,0.2s0.2-0.1,0.2-0.3S27.6,13.3,27.5,13.3z"/>
	<path class="st0" d="M29.6,11.3c-0.1-0.1-0.2-0.1-0.2,0c-0.1,0.1-0.1,0.2,0,0.2l0.5,0.5H30h0.1c0.1-0.1,0.1-0.2,0-0.2L29.6,11.3z"
		/>
	<path class="st0" d="M30.2,12.1c-0.1,0.1-0.1,0.2,0,0.3s0.2,0.1,0.3,0c0.1-0.1,0.1-0.2,0-0.3C30.4,12.1,30.3,12.1,30.2,12.1z"/>
	<path class="st0" d="M31,9.3h-0.7c-0.1,0-0.1,0.1-0.1,0.1v0.2h0.7C31,9.6,31,9.5,31,9.5S31.1,9.3,31,9.3z"/>
	<path class="st0" d="M31.5,9.3c-0.1,0-0.2,0.1-0.2,0.2s0.1,0.2,0.2,0.2s0.2-0.1,0.2-0.2S31.6,9.3,31.5,9.3z"/>
	<path class="st0" d="M29.4,7.7h0.1L30,7.2C30.1,7.1,30.1,7,30,7c-0.1-0.1-0.2-0.1-0.2,0l-0.5,0.5c-0.1,0.1-0.1,0.2,0,0.2
		S29.4,7.7,29.4,7.7z"/>
	<path class="st0" d="M30.5,6.8c0.1-0.1,0.1-0.2,0-0.3c-0.1-0.1-0.2-0.1-0.3,0c-0.1,0.1-0.1,0.2,0,0.3S30.4,6.9,30.5,6.8z"/>
</g>
<g>
	<g>
		<g>
			<path class="st0" d="M35.4,35.4H13.2c-0.1,0-0.2-0.1-0.2-0.2v-1.7c0-0.1,0.1-0.2,0.2-0.2h22.2c0.1,0,0.2,0.1,0.2,0.2v1.7
				C35.6,35.3,35.5,35.4,35.4,35.4z M13.4,35h21.8v-1.3H13.4V35z"/>
		</g>
		<g>
			<path class="st0" d="M34,33.7H14.7c-0.1,0-0.2-0.1-0.2-0.2v-1.7c0-0.1,0.1-0.2,0.2-0.2H34c0.1,0,0.2,0.1,0.2,0.2v1.7
				C34.2,33.6,34.1,33.7,34,33.7z"/>
		</g>
		<g>
			<path class="st0" d="M35.1,20.2L35.1,20.2H13.5c-0.1,0-0.2-0.1-0.2-0.1c0-0.1,0-0.2,0.1-0.2l10.8-6.2c0.1,0,0.1,0,0.2,0l10.8,6.2
				c0.1,0,0.1,0.1,0.1,0.2C35.3,20.1,35.3,20.2,35.1,20.2z"/>
		</g>
		<g>
			<path class="st0" d="M25.4,32.1h-2c-0.1,0-0.2-0.1-0.2-0.2V21.4c0-0.1,0.1-0.2,0.2-0.2h2c0.1,0,0.2,0.1,0.2,0.2v10.5
				C25.6,32,25.5,32.1,25.4,32.1z"/>
		</g>
		<g>
			<path class="st0" d="M18.2,32.1h-2c-0.1,0-0.2-0.1-0.2-0.2V21.4c0-0.1,0.1-0.2,0.2-0.2h2c0.1,0,0.2,0.1,0.2,0.2v10.5
				C18.3,32,18.3,32.1,18.2,32.1z M16.4,31.7H18V21.6h-1.6C16.4,21.6,16.4,31.7,16.4,31.7z"/>
		</g>
		<g>
			<path class="st0" d="M32.7,32.1h-2c-0.1,0-0.2-0.1-0.2-0.2V21.4c0-0.1,0.1-0.2,0.2-0.2h2c0.1,0,0.2,0.1,0.2,0.2v10.5
				C32.9,32,32.8,32.1,32.7,32.1z M30.9,31.7h1.6V21.6h-1.6V31.7z"/>
		</g>
		<g>
			<path class="st0" d="M18.8,21.6h-3.4c-0.1,0-0.2-0.1-0.2-0.2V20c0-0.1,0.1-0.2,0.2-0.2h3.4c0.1,0,0.2,0.1,0.2,0.2v1.4
				C19,21.5,19,21.6,18.8,21.6z"/>
		</g>
		<g>
			<path class="st0" d="M26.1,21.6h-3.4c-0.1,0-0.2-0.1-0.2-0.2V20c0-0.1,0.1-0.2,0.2-0.2h3.4c0.1,0,0.2,0.1,0.2,0.2v1.4
				C26.3,21.5,26.2,21.6,26.1,21.6z"/>
		</g>
		<g>
			<path class="st0" d="M33.4,21.6H30c-0.1,0-0.2-0.1-0.2-0.2V20c0-0.1,0.1-0.2,0.2-0.2h3.4c0.1,0,0.2,0.1,0.2,0.2v1.4
				C33.6,21.5,33.5,21.6,33.4,21.6z"/>
		</g>
		<g>
			<path class="st0" d="M24.3,19.2c-0.8,0-1.4-0.6-1.4-1.4s0.6-1.4,1.4-1.4s1.4,0.6,1.4,1.4S25.1,19.2,24.3,19.2z M24.3,16.8
				c-0.6,0-1,0.5-1,1c0,0.6,0.5,1,1,1c0.6,0,1-0.5,1-1C25.4,17.2,24.9,16.8,24.3,16.8z"/>
		</g>
	</g>
</g>
<g>
	<g>
		<path class="st0" d="M9.4,32.6c-0.2-1.6,0.6-2.5,0.9-2.8c0.3,1.6,1.7,2.9,3.3,2.9s2.9-1.1,3.3-2.6c0.3,0.5,0.7,1.5,0.6,2.5
			c2.8,0,1.4-3.3-0.5-3.6c0-0.2,0-0.3-0.1-0.5c-0.1-1-1-3.1-3.7-3c-2.3,0.1-2.8,1.8-2.9,2.8c-0.1,0.3-0.1,0.5-0.1,0.8
			C7.3,29.6,7.6,32.6,9.4,32.6z M12,28.3c0,0,0.3,0.1,0.3,1c0.5,0.2,1.4-1.5,1.4-1.5v1.3C14.3,29.2,16,29,16,29l0.1,0.1v0.1
			c0,1.3-1.1,2.4-2.4,2.4s-2.4-1.1-2.4-2.4C11.6,29.2,12,28.3,12,28.3z"/>
		<polygon class="st0" points="14.3,33.1 12.9,33.1 11.7,33.1 8.2,37.4 9,38.4 11.6,35.4 11.7,36.6 11.3,37.6 16,37.5 15.4,36.6 
			15.5,35.1 17.5,37.9 18.9,37.5 15.7,33.1 		"/>
	</g>
</g>
</svg>
