<?xml version="1.0" encoding="utf-8"?>
<!-- Generator: Adobe Illustrator 24.3.0, SVG Export Plug-In . SVG Version: 6.00 Build 0)  -->
<svg version="1.1" id="Layer_1" xmlns="http://www.w3.org/2000/svg" xmlns:xlink="http://www.w3.org/1999/xlink" x="0px" y="0px"
	 viewBox="0 0 45 45" style="enable-background:new 0 0 45 45;" xml:space="preserve">
<style type="text/css">
	.st0{fill:#F3702A;}
	.st1{fill:#FFFFFF;}
	.st2{opacity:0.4;}
	.st3{opacity:0.69;}
	.st4{opacity:0.44;}
</style>
<g>
	<path class="st0" d="M44.8,22.7c0,12.4-10.1,22.5-22.5,22.5C9.9,45.2-0.2,35.2-0.2,22.7c0-12.4,10.1-22.5,22.5-22.5
		C34.8,0.2,44.8,10.3,44.8,22.7z"/>
</g>
<circle class="st1" cx="22.3" cy="22.7" r="21.1"/>
<g>
	<g>
		<g>
			<path class="st0" d="M34.2,25.2c0,0.1-0.1,0.2-0.1,0.2c-0.3,0.7-0.8,1.7-0.9,2.5c-0.5,0.4-0.9,0.7-1.3,1c-0.4,0.3-0.9,0.6-1.4,1
				h-4.9c0.1,0,0.2,0,0.2-0.1c0.5-0.1,1.1-0.2,1.6-0.3c0.7-0.1,1.5-0.4,2.3-0.5c0.3-0.2,0.7-0.4,1.1-0.6c0.4-0.2,0.8-0.6,1.1-0.9
				c0.2-0.6,0.3-1.2,0.6-1.7C32.9,25.4,33.6,25.2,34.2,25.2z"/>
		</g>
		<g class="st2">
			<g>
				<path class="st0" d="M34.2,25.2c0,0.1-0.1,0.2-0.1,0.2c-0.3,0.7-0.8,1.7-0.9,2.5c-0.5,0.4-0.9,0.7-1.3,1c-0.4,0.3-0.9,0.6-1.4,1
					h-4.9c0.1,0,0.2,0,0.2-0.1c0.5-0.1,1.1-0.2,1.6-0.3c0.7-0.1,1.5-0.4,2.3-0.5c0.3-0.2,0.7-0.4,1.1-0.6c0.4-0.2,0.8-0.6,1.1-0.9
					c0.2-0.6,0.3-1.2,0.6-1.7C32.9,25.4,33.6,25.2,34.2,25.2z"/>
			</g>
		</g>
		<g>
			<path class="st0" d="M36.1,24.3c-0.1,1-0.2,1.8-0.3,2.6c-0.1,0.8-0.3,2.1-0.4,2.4c-0.3,0.4-1.7,1.9-2.6,2.8
				c-0.4,0.4-0.6,1.1-1.1,1.5c-0.5,0.5-1.4,0.5-2.1,0.6C28.1,34.5,26.6,35,25,35c-1.4,0-3.2-0.2-4.6-0.6c-2.6-0.7-4.7-1.8-7.3-2.2
				v-7.1c2.3-0.1,9.3,0,10.6,0c1,0,2.8,0.2,3.9,0.2c1.6,3.5-3.9,2.4-6.5,3.1c0.8,1.3,2.4,1.5,3.9,1.5h5.4c0.4-0.4,1-0.7,1.4-1
				c0.4-0.3,0.9-0.7,1.3-1c0.1-0.8,0.6-1.9,0.9-2.5c0-0.1,0.1-0.2,0.1-0.2C34.6,24.4,35.2,24.3,36.1,24.3z"/>
		</g>
		<g class="st3">
			<g>
				<path class="st0" d="M27.7,26.3l-1.2,0.2c-0.3,0-0.7,0.1-0.9-0.1c-0.1-0.1-0.2-0.4-0.2-0.6c-0.1-0.2-0.2-0.4-0.3-0.6
					c0.8,0.1,1.7,0.1,2.4,0.2C27.6,25.5,27.8,26,27.7,26.3z"/>
			</g>
		</g>
		<g>
			<rect x="11.2" y="24.3" class="st0" width="5.1" height="9.3"/>
		</g>
		<g>
			<polygon class="st0" points="8.9,34.4 15.4,34.4 15.4,34.4 15.4,33.6 15.4,28.9 15.4,24.3 15.4,23.5 8.9,23.5 8.9,28.9 8.9,34.4 
							"/>
		</g>
		<g class="st4">
			<rect x="8.9" y="28.9" class="st0" width="6.5" height="5.4"/>
		</g>
		<g>
			<path class="st0" d="M13.2,32.1c0,0.6-0.5,1.1-1.1,1.1c-0.6,0-1.1-0.5-1.1-1.1c0-0.6,0.5-1.1,1.1-1.1
				C12.7,31,13.2,31.5,13.2,32.1z"/>
		</g>
	</g>
	<g>
		<path class="st0" d="M32.4,9.9c0,1.9-1.5,3.5-3.5,3.5c-1.9,0-3.5-1.5-3.5-3.5c0-1.9,1.5-3.5,3.5-3.5C30.8,6.5,32.4,8,32.4,9.9z"/>
		<path class="st0" d="M32,9.9c0,1.7-1.4,3.1-3.1,3.1c-1.7,0-3.1-1.4-3.1-3.1c0-1.7,1.4-3.1,3.1-3.1C30.6,6.8,32,8.2,32,9.9z"/>
		<path class="st0" d="M32.4,9.9c0-1.9-1.5-3.5-3.5-3.5v6.9C30.8,13.4,32.4,11.8,32.4,9.9z"/>
		<path class="st0" d="M32,9.9c0-1.7-1.4-3.1-3.1-3.1V13C30.6,13,32,11.6,32,9.9z"/>
		<g>
			<path class="st1" d="M28.7,12.1v-0.5c-0.3,0-0.5,0-0.7-0.1c-0.2,0-0.3-0.1-0.4-0.1v-0.9h1c0,0.1,0,0.2,0.1,0.2
				c0,0,0.1,0.1,0.2,0.1c0.1,0,0.2,0,0.2,0c0,0,0.1-0.1,0.1-0.1c0,0,0-0.1,0-0.1c0,0-0.1-0.1-0.2-0.1c-0.2-0.1-0.4-0.2-0.6-0.2
				C28.1,10,28,10,27.9,9.9c-0.1-0.1-0.2-0.2-0.2-0.3c-0.1-0.1-0.1-0.3-0.1-0.4c0-0.1,0-0.3,0.1-0.4c0-0.1,0.1-0.2,0.2-0.3
				c0.1-0.1,0.2-0.2,0.3-0.2c0.1-0.1,0.3-0.1,0.5-0.1V7.6h0.6v0.5c0.1,0,0.3,0,0.4,0c0.1,0,0.2,0,0.3,0.1c0.1,0,0.2,0.1,0.2,0.1
				c0.1,0,0.1,0.1,0.2,0.1v0.8h-0.9c0-0.1,0-0.1-0.1-0.2c0,0-0.1,0-0.2,0c-0.1,0-0.2,0-0.2,0c0,0-0.1,0.1-0.1,0.1c0,0,0,0.1,0.1,0.1
				c0,0,0.1,0,0.2,0.1c0.2,0.1,0.3,0.1,0.5,0.2c0.1,0.1,0.3,0.1,0.4,0.2c0.1,0.1,0.2,0.2,0.3,0.3c0.1,0.1,0.1,0.3,0.1,0.5
				c0,0.3-0.1,0.6-0.3,0.8c-0.2,0.2-0.5,0.3-0.9,0.3v0.5H28.7z"/>
		</g>
	</g>
	<g>
		<path class="st0" d="M33.9,21c0,1.9-1.5,3.5-3.5,3.5c-1.9,0-3.5-1.5-3.5-3.5s1.5-3.5,3.5-3.5C32.3,17.5,33.9,19.1,33.9,21z"/>
		<path class="st0" d="M33.5,21c0,1.7-1.4,3.1-3.1,3.1c-1.7,0-3.1-1.4-3.1-3.1c0-1.7,1.4-3.1,3.1-3.1C32.1,17.9,33.5,19.3,33.5,21z"
			/>
		<path class="st0" d="M33.9,21c0-1.9-1.5-3.5-3.5-3.5v6.9C32.3,24.5,33.9,22.9,33.9,21z"/>
		<path class="st0" d="M33.5,21c0-1.7-1.4-3.1-3.1-3.1v6.2C32.1,24.1,33.5,22.7,33.5,21z"/>
		<g>
			<path class="st1" d="M30.1,23.1v-0.5c-0.3,0-0.5,0-0.7-0.1c-0.2,0-0.3-0.1-0.4-0.1v-0.9h1c0,0.1,0,0.2,0.1,0.2
				c0,0,0.1,0.1,0.2,0.1c0.1,0,0.2,0,0.2,0c0,0,0.1-0.1,0.1-0.1c0,0,0-0.1,0-0.1c0,0-0.1-0.1-0.2-0.1c-0.2-0.1-0.4-0.2-0.6-0.2
				c-0.2-0.1-0.3-0.2-0.4-0.2c-0.1-0.1-0.2-0.2-0.2-0.3C29,20.5,29,20.3,29,20.2c0-0.1,0-0.3,0.1-0.4c0-0.1,0.1-0.2,0.2-0.3
				c0.1-0.1,0.2-0.2,0.3-0.2c0.1-0.1,0.3-0.1,0.5-0.1v-0.5h0.6v0.5c0.1,0,0.3,0,0.4,0c0.1,0,0.2,0,0.3,0.1c0.1,0,0.2,0.1,0.2,0.1
				c0.1,0,0.1,0.1,0.2,0.1v0.8h-0.9c0-0.1,0-0.1-0.1-0.2c0,0-0.1,0-0.2,0c-0.1,0-0.2,0-0.2,0c0,0-0.1,0.1-0.1,0.1c0,0,0,0.1,0.1,0.1
				c0,0,0.1,0,0.2,0.1c0.2,0.1,0.3,0.1,0.5,0.2c0.1,0.1,0.3,0.1,0.4,0.2c0.1,0.1,0.2,0.2,0.3,0.3c0.1,0.1,0.1,0.3,0.1,0.5
				c0,0.3-0.1,0.6-0.3,0.8c-0.2,0.2-0.5,0.3-0.9,0.3v0.5H30.1z"/>
		</g>
	</g>
	<g>
		<path class="st0" d="M25.8,17.3c0,1.9-1.5,3.5-3.5,3.5s-3.5-1.5-3.5-3.5s1.5-3.5,3.5-3.5S25.8,15.4,25.8,17.3z"/>
		<path class="st0" d="M25.4,17.3c0,1.7-1.4,3.1-3.1,3.1c-1.7,0-3.1-1.4-3.1-3.1s1.4-3.1,3.1-3.1C24,14.2,25.4,15.6,25.4,17.3z"/>
		<path class="st0" d="M25.8,17.3c0-1.9-1.5-3.5-3.5-3.5v6.9C24.2,20.7,25.8,19.2,25.8,17.3z"/>
		<path class="st0" d="M25.4,17.3c0-1.7-1.4-3.1-3.1-3.1v6.2C24,20.4,25.4,19,25.4,17.3z"/>
		<g>
			<path class="st1" d="M22,19.4v-0.5c-0.3,0-0.5,0-0.7-0.1c-0.2,0-0.3-0.1-0.4-0.1v-0.9h1c0,0.1,0,0.2,0.1,0.2s0.1,0.1,0.2,0.1
				c0.1,0,0.2,0,0.2,0c0,0,0.1-0.1,0.1-0.1c0,0,0-0.1,0-0.1c0,0-0.1-0.1-0.2-0.1c-0.2-0.1-0.4-0.2-0.6-0.2c-0.2-0.1-0.3-0.2-0.4-0.2
				c-0.1-0.1-0.2-0.2-0.2-0.3c-0.1-0.1-0.1-0.3-0.1-0.4c0-0.1,0-0.3,0.1-0.4c0-0.1,0.1-0.2,0.2-0.3c0.1-0.1,0.2-0.2,0.3-0.2
				c0.1-0.1,0.3-0.1,0.5-0.1v-0.5h0.6v0.5c0.1,0,0.3,0,0.4,0c0.1,0,0.2,0,0.3,0.1c0.1,0,0.2,0.1,0.2,0.1c0.1,0,0.1,0.1,0.2,0.1v0.8
				h-0.9c0-0.1,0-0.1-0.1-0.2c0,0-0.1,0-0.2,0c-0.1,0-0.2,0-0.2,0c0,0-0.1,0.1-0.1,0.1c0,0,0,0.1,0.1,0.1c0,0,0.1,0,0.2,0.1
				c0.2,0.1,0.3,0.1,0.5,0.2c0.1,0.1,0.3,0.1,0.4,0.2c0.1,0.1,0.2,0.2,0.3,0.3c0.1,0.1,0.1,0.3,0.1,0.5c0,0.3-0.1,0.6-0.3,0.8
				c-0.2,0.2-0.5,0.3-0.9,0.3v0.5H22z"/>
		</g>
	</g>
</g>
</svg>
