<?xml version="1.0" encoding="utf-8"?>
<!-- Generator: Adobe Illustrator 24.3.0, SVG Export Plug-In . SVG Version: 6.00 Build 0)  -->
<svg version="1.1" id="Layer_1" xmlns="http://www.w3.org/2000/svg" xmlns:xlink="http://www.w3.org/1999/xlink" x="0px" y="0px"
	 viewBox="0 0 45 45" style="enable-background:new 0 0 45 45;" xml:space="preserve">
<style type="text/css">
	.st0{fill:#F3702A;}
	.st1{fill:#FFFFFF;}
	.st2{opacity:0.1;}
	.st3{opacity:0.4;fill:#F3702A;}
	.st4{opacity:0.6;fill:#F3702A;}
</style>
<g>
	<path class="st0" d="M44.8,22.7c0,12.4-10.1,22.5-22.5,22.5C9.9,45.2-0.2,35.2-0.2,22.7c0-12.4,10.1-22.5,22.5-22.5
		C34.8,0.2,44.8,10.3,44.8,22.7z"/>
</g>
<circle class="st1" cx="22.5" cy="22.7" r="21.1"/>
<g>
	<path class="st0" d="M23.9,13.9c0,0,0,0,0,0.1c0,0,0,0,0,0.1c0,0,0,0,0,0.1c0,0,0,0,0,0.1c0,0,0,0.1,0,0.1c0,0.1-0.1,0.3-0.2,0.4
		c0,0-0.1,0.1-0.1,0.1c0,0-0.1,0.1-0.1,0.1c0,0-0.1,0.1-0.1,0.1c0,0-0.1,0.1-0.1,0.1c0,0,0,0,0,0c-0.2,0.1-0.4,0.2-0.7,0.2
		c0,0-0.1,0-0.1,0l0,0l0,0c0,0,0,0,0,0h0h0h0c-0.1,0-0.1,0-0.2,0c-0.1,0-0.2,0-0.3-0.1c0,0-0.1,0-0.1,0c-0.1-0.1-0.3-0.1-0.4-0.2
		c-0.1-0.1-0.2-0.2-0.3-0.3c-0.1-0.1-0.2-0.3-0.2-0.4c0-0.1-0.1-0.3-0.1-0.4c0-0.2,0-0.3,0.1-0.5c0-0.1,0.1-0.2,0.1-0.3
		c0,0,0-0.1,0.1-0.1c0.1-0.1,0.2-0.2,0.3-0.3c0.1-0.1,0.2-0.2,0.4-0.2c0,0,0.1,0,0.1,0c0.1,0,0.2-0.1,0.3-0.1c0.1,0,0.1,0,0.2,0
		c0,0,0.1,0,0.1,0c0,0,0,0,0.1,0c0,0,0,0,0.1,0c0.3,0,0.5,0.1,0.7,0.3c0.2,0.1,0.3,0.3,0.4,0.4c0,0,0,0,0,0.1
		c0.1,0.2,0.1,0.3,0.2,0.4c0,0,0,0.1,0,0.1c0,0,0,0.1,0,0.1c0,0,0,0,0,0.1c0,0,0,0,0,0.1C23.9,13.9,23.9,13.9,23.9,13.9z"/>
	<g>
		<path class="st0" d="M27.6,13.3c-1.7-1.4-3.5-2.7-5.3-4c-0.9,0.7-1.9,1.4-2.8,2.1c-2.5,1.9-4.9,3.8-7.4,5.7c3.4,0,6.8,0,10.2,0
			c3.4,0,6.8,0,10.2,0C30.9,15.9,29.3,14.6,27.6,13.3z M20.2,13.3c0.1-0.2,0.2-0.4,0.3-0.5c0.1-0.2,0.3-0.3,0.4-0.4
			c0.2-0.1,0.3-0.2,0.5-0.3c0.2-0.1,0.4-0.1,0.6-0.2c0.1,0,0.2,0,0.3,0l0,0l0,0h0c0,0,0,0,0,0l0,0l0.1,0c0,0,0.1,0,0.1,0
			c0.4,0,0.7,0.2,1,0.3c0.3,0.2,0.5,0.4,0.6,0.6c0.1,0.2,0.2,0.4,0.3,0.6c0,0,0,0.1,0,0.1c0,0,0,0.1,0,0.1c0,0,0,0.1,0,0.1
			c0,0,0,0.1,0,0.1c0,0.1,0,0.1,0,0.1v0c0,0,0,0,0,0.1c0,0,0,0,0,0.1c0,0,0,0.1,0,0.1c0,0,0,0.1,0,0.1c0,0,0,0.1,0,0.1
			c-0.1,0.2-0.1,0.4-0.3,0.6c-0.1,0.2-0.3,0.4-0.6,0.6c-0.3,0.2-0.6,0.3-1,0.3c0,0-0.1,0-0.1,0l-0.1,0l0,0h0h0h0l0,0
			c-0.1,0-0.2,0-0.3,0c-0.2,0-0.4-0.1-0.6-0.2c-0.2-0.1-0.4-0.2-0.5-0.3c-0.2-0.1-0.3-0.3-0.4-0.4c-0.1-0.2-0.2-0.4-0.3-0.5l0-0.1
			c0,0,0,0,0-0.1l0-0.1c0-0.1,0-0.1,0-0.2l0-0.2C20.2,13.7,20.2,13.5,20.2,13.3z"/>
		<path class="st0" d="M35.1,33.1c-2,0-4,0-6.1,0c-2.3,0-4.5,0-6.8,0c-2.3,0-4.5,0-6.8,0c-2,0-4,0-6.1,0c0-0.3,0-0.6,0-0.9
			c0,0,0-0.1,0-0.1c0.4,0,0.8,0,1.2,0c0,0,0.1,0,0.1,0c1.1,0,2.2,0,3.3,0h0.7c0,0,0.1,0,0.1,0c0.7,0,1.5,0,2.2,0h0.1
			c1.3,0,2.6,0,3.9,0c0,0,0.1,0,0.1,0c0.4,0,0.7,0,1.1,0c0.4,0,0.7,0,1.1,0c0,0,0,0,0,0c0,0,0,0,0,0c1.3,0,2.6,0,3.9,0h0.1
			c0.7,0,1.5,0,2.2,0c0,0,0,0,0,0c0,0,0,0,0,0h0.7c1.1,0,2.2,0,3.3,0c0,0,0.1,0,0.1,0c0.4,0,0.8,0,1.2,0c0,0,0,0.1,0,0.1
			C35.1,32.4,35.1,32.7,35.1,33.1z"/>
		<path class="st0" d="M33.1,31c-0.3,0-0.6,0-1,0c-0.1,0-0.2,0-0.3,0c-0.1,0-0.1,0-0.2,0c-0.1,0-0.1,0-0.2,0c-0.3,0-0.5,0-0.8,0
			c0-0.9,0-1.7,0-2.6c0-1.2,0-2.3,0-3.4c0-1.1,0-2.3,0-3.4c0-0.7,0-1.4,0-2.1c0.3,0,0.6,0,0.9,0c0.1,0,0.1,0,0.2,0h0.1
			c0.4,0,0.7,0,1.1,0c0,0.7,0,1.4,0,2.1c0,1.1,0,2.3,0,3.4c0,1.1,0,2.3,0,3.4C33,29.2,33,30.1,33.1,31z"/>
		<path class="st0" d="M26.7,31c-0.3,0-0.6,0-1,0c-0.1,0-0.2,0-0.3,0c-0.1,0-0.1,0-0.2,0h0c-0.3,0-0.6,0-1,0c0-0.9,0-1.7,0-2.6
			c0-1.2,0-2.3,0-3.4c0-1.1,0-2.3,0-3.4c0-0.7,0-1.4,0-2.1c0.3,0,0.6,0,0.9,0c0.1,0,0.1,0,0.2,0h0.1c0.4,0,0.7,0,1.1,0
			c0,0.7,0,1.4,0,2.1c0,1.1,0,2.3,0,3.4c0,1.1,0,2.3,0,3.4C26.6,29.2,26.6,30.1,26.7,31z"/>
		<path class="st0" d="M20.4,31c-0.3,0-0.6,0-1,0h0c-0.1,0-0.1,0-0.2,0c-0.1,0-0.2,0-0.4,0h0c-0.3,0-0.6,0-0.9,0c0-0.9,0-1.7,0-2.6
			c0-1.2,0-2.3,0-3.4c0-1.1,0-2.3,0-3.4c0-0.7,0-1.4,0-2.1c0.3,0,0.7,0,1,0c0,0,0,0,0,0c0.1,0,0.1,0,0.2,0h0c0.1,0,0.1,0,0.2,0
			c0.3,0,0.6,0,0.9,0c0,0.7,0,1.4,0,2.1c0,1.1,0,2.3,0,3.4c0,1.1,0,2.3,0,3.4C20.4,29.3,20.4,30.1,20.4,31z"/>
		<path class="st0" d="M14,31c-0.3,0-0.6,0-1,0h0c0,0-0.1,0-0.1,0c-0.1,0-0.2,0-0.3,0c-0.3,0-0.6,0-1,0c0-0.9,0-1.7,0-2.6
			c0-1.2,0-2.3,0-3.4c0-1.1,0-2.3,0-3.4c0-0.7,0-1.4,0-2.1c0.4,0,0.7,0,1.1,0h0.1c0.1,0,0.1,0,0.2,0c0.3,0,0.6,0,0.9,0
			c0,0.7,0,1.4,0,2.1c0,1.1,0,2.3,0,3.4c0,1.1,0,2.3,0,3.4C14,29.3,14,30.1,14,31z"/>
	</g>
	<g>
		<path class="st0" d="M24.3,13.6c0,0,0-0.1,0-0.1c0,0,0-0.1,0-0.1c0-0.2-0.1-0.4-0.2-0.6c-0.1-0.2-0.3-0.4-0.5-0.6
			c-0.2-0.2-0.6-0.3-0.9-0.3c0,0-0.1,0-0.1,0l-0.1,0c0,0,0,0-0.1,0c-0.1,0-0.2,0-0.3,0c-0.2,0-0.4,0.1-0.5,0.2
			c-0.2,0.1-0.3,0.2-0.5,0.3c-0.2,0.1-0.3,0.3-0.4,0.4c-0.1,0.2-0.2,0.3-0.2,0.5c-0.1,0.2-0.1,0.4-0.1,0.6c0,0.2,0,0.4,0.1,0.6
			c0.1,0.2,0.1,0.4,0.3,0.5c0.1,0.2,0.2,0.3,0.4,0.4c0.1,0.1,0.3,0.2,0.5,0.3c0.2,0.1,0.3,0.1,0.5,0.1c0.1,0,0.2,0,0.3,0l0,0l0,0h0
			l0,0l0,0l0.1,0c0,0,0.1,0,0.1,0c0.3,0,0.6-0.2,0.9-0.3c0.1,0,0.1-0.1,0.2-0.1c0,0,0.1-0.1,0.1-0.1c0,0,0.1-0.1,0.1-0.1
			c0,0,0.1-0.1,0.1-0.1c0.1-0.2,0.2-0.4,0.3-0.5c0,0,0-0.1,0-0.1c0,0,0-0.1,0-0.1c0,0,0-0.1,0-0.1c0,0,0-0.1,0-0.1
			c0-0.1,0-0.1,0-0.1c0,0,0-0.1,0-0.1C24.3,13.8,24.3,13.7,24.3,13.6C24.3,13.7,24.3,13.7,24.3,13.6z M24,13.9c0,0,0,0,0,0.1
			c0,0,0,0,0,0.1c0,0,0,0,0,0.1c0,0,0,0.1,0,0.1c0,0,0,0.1,0,0.1c0,0.1-0.1,0.3-0.2,0.5c-0.1,0.2-0.3,0.3-0.5,0.5
			c-0.2,0.1-0.5,0.2-0.8,0.3c0,0-0.1,0-0.1,0l-0.1,0l0,0h0h0h0l0,0c-0.1,0-0.1,0-0.2,0c-0.2,0-0.3-0.1-0.5-0.1
			c-0.1-0.1-0.3-0.1-0.4-0.2c-0.1-0.1-0.2-0.2-0.3-0.4c-0.1-0.1-0.2-0.3-0.2-0.4c0-0.1,0-0.2-0.1-0.2c0,0,0-0.1,0-0.1l0-0.1
			c0-0.1,0-0.3,0.1-0.5c0.1-0.2,0.1-0.3,0.2-0.4c0.1-0.1,0.2-0.3,0.3-0.4c0.1-0.1,0.3-0.2,0.4-0.2c0.1-0.1,0.3-0.1,0.4-0.1
			c0.1,0,0.2,0,0.2,0h0l0,0h0h0l0,0l0.1,0c0,0,0.1,0,0.1,0c0.3,0,0.6,0.1,0.8,0.3c0.2,0.1,0.4,0.3,0.5,0.5c0.1,0.2,0.2,0.3,0.2,0.5
			c0,0,0,0.1,0,0.1c0,0,0,0.1,0,0.1c0,0,0,0.1,0,0.1c0,0,0,0,0,0.1C24,13.9,24,13.9,24,13.9L24,13.9z"/>
		<path class="st0" d="M33.2,31.1h-0.1c-0.4,0-0.8,0-1.3,0c-0.1,0-0.1,0-0.2,0c-0.3,0-0.6,0-1,0c0,0-0.1,0-0.1,0c-0.2,0-0.4,0-0.6,0
			c0,0.1,0,0.2,0,0.3c0,0.1,0,0.3,0,0.4h1.3c0.6,0,1.3,0,1.9,0c0.2,0,0.5,0,0.7,0c0-0.2,0-0.5,0-0.7C33.6,31.1,33.4,31.1,33.2,31.1z
			"/>
		<path class="st0" d="M26.8,31.1h-0.1c-0.4,0-0.8,0-1.3,0c-0.1,0-0.1,0-0.2,0c-0.3,0-0.6,0-1,0c0,0-0.1,0-0.1,0c-0.2,0-0.4,0-0.6,0
			c0,0.1,0,0.2,0,0.3c0,0.1,0,0.3,0,0.4c1,0,2,0,2.9,0h1c0-0.2,0-0.5,0-0.7C27.2,31.1,27,31.1,26.8,31.1z"/>
		<path class="st0" d="M18.2,31.9c1,0,2,0,2.9,0c0-0.1,0-0.3,0-0.4c0-0.1,0-0.2,0-0.3c-0.2,0-0.4,0-0.6,0c0,0-0.1,0-0.1,0
			c-0.3,0-0.6,0-1,0c-0.1,0-0.1,0-0.2,0c-0.4,0-0.8,0-1.3,0h-0.1c-0.2,0-0.4,0-0.6,0c0,0.2,0,0.5,0,0.7H18.2z"/>
		<path class="st0" d="M13.5,31.9h1.3c0-0.1,0-0.3,0-0.4c0-0.1,0-0.2,0-0.3c-0.2,0-0.4,0-0.6,0c0,0-0.1,0-0.1,0c-0.3,0-0.6,0-1,0
			c-0.1,0-0.1,0-0.2,0c-0.4,0-0.8,0-1.3,0h-0.1c-0.2,0-0.4,0-0.6,0c0,0.2,0,0.5,0,0.7C11.7,31.8,12.6,31.9,13.5,31.9z"/>
		<path class="st0" d="M36.8,35.5c-2.6-0.1-5.1,0-7.7,0c-2.3,0-4.5,0-6.8,0c-2.3,0-4.5,0-6.8,0c-2.6,0-5.1,0-7.7,0
			c0-0.4,0-0.8,0-1.2c0-0.4,0-0.8,0-1.2c0.5,0,1,0,1.5,0c0,0,0.1,0,0.1,0c0.7,0,1.5,0,2.2,0c3.5,0,7.1,0,10.6,0c3.5,0,7.1,0,10.6,0
			c0.7,0,1.5,0,2.2,0c0,0,0.1,0,0.1,0c0.5,0,1,0,1.5,0c0,0.7,0,1.3,0,2l0,0C36.8,35.3,36.8,35.4,36.8,35.5z"/>
		<path class="st0" d="M13.5,18.5c-0.9,0-1.8,0-2.7,0c0,0.2,0,0.5,0,0.7c0.2,0,0.4,0,0.6,0h0.2c0.4,0,0.8,0,1.2,0c0.1,0,0.1,0,0.2,0
			c0.3,0,0.6,0,0.9,0c0.1,0,0.1,0,0.2,0c0.2,0,0.4,0,0.6,0c0-0.1,0-0.2,0-0.3c0-0.1,0-0.3,0-0.4H13.5z"/>
		<path class="st0" d="M18.2,18.5h-1c0,0.2,0,0.5,0,0.7c0.2,0,0.4,0,0.6,0H18c0.4,0,0.8,0,1.2,0c0.1,0,0.1,0,0.2,0
			c0.3,0,0.6,0,0.9,0c0.1,0,0.1,0,0.2,0c0.2,0,0.4,0,0.6,0c0-0.1,0-0.2,0-0.3c0-0.1,0-0.3,0-0.4C20.1,18.6,19.2,18.5,18.2,18.5z"/>
		<path class="st0" d="M26.5,18.5c-1,0-2,0-2.9,0c0,0.1,0,0.3,0,0.4c0,0.1,0,0.2,0,0.3c0.2,0,0.4,0,0.6,0c0.1,0,0.1,0,0.2,0
			c0.3,0,0.6,0,0.9,0c0.1,0,0.1,0,0.2,0c0.4,0,0.8,0,1.2,0h0.2c0.2,0,0.4,0,0.6,0c0-0.2,0-0.5,0-0.7H26.5z"/>
		<path class="st0" d="M31.2,18.5h-1.3c0,0.2,0,0.3,0,0.4c0,0.1,0,0.2,0,0.3c0.2,0,0.4,0,0.6,0c0.1,0,0.1,0,0.2,0c0.3,0,0.6,0,0.9,0
			c0.1,0,0.1,0,0.2,0c0.4,0,0.8,0,1.2,0h0.2c0.2,0,0.4,0,0.6,0c0-0.1,0-0.3,0-0.4c0-0.1,0-0.2,0-0.3C32.9,18.6,32.1,18.5,31.2,18.5z
			"/>
		<path class="st0" d="M9.5,18.3c0,0,0,0.1,0,0.1c0.4,0,0.8,0,1.2,0c0,0,0.1,0,0.1,0c1.1,0,2.2,0,3.3,0h0.7h0.1c0.7,0,1.5,0,2.2,0
			c0,0,0.1,0,0.1,0c1.3,0,2.6,0,3.9,0h0.1c0.4,0,0.7,0,1.1,0s0.7,0,1.1,0h0.1c1.3,0,2.6,0,3.9,0c0,0,0.1,0,0.1,0c0.7,0,1.5,0,2.2,0
			h0.1h0.7c0.8,0,1.6,0,2.4,0c0.3,0,0.6,0,0.9,0c0,0,0.1,0,0.1,0c0.4,0,0.8,0,1.2,0c0,0,0-0.1,0-0.1c0-0.3,0-0.6,0-0.9
			c-0.2,0-0.5,0-0.7,0c0,0-0.1,0-0.1,0c-0.5,0-1,0-1.4,0c0,0-0.1,0-0.1,0c-1.2,0-2.5,0-3.7,0c-2.3,0-4.5,0-6.8,0c-2.3,0-4.5,0-6.8,0
			c-1.2,0-2.5,0-3.7,0c0,0-0.1,0-0.1,0c-0.5,0-1,0-1.4,0c0,0-0.1,0-0.1,0c-0.2,0-0.5,0-0.7,0C9.5,17.7,9.5,18,9.5,18.3z"/>
		<path class="st0" d="M12,17.2C12,17.2,12,17.1,12,17.2c0.8-0.7,1.5-1.3,2.2-1.8c1.8-1.5,3.7-2.9,5.6-4.4c0.8-0.6,1.6-1.2,2.4-1.8
			c0,0,0.1-0.1,0.1-0.1c0,0,0.1,0.1,0.1,0.1c0.8,0.6,1.6,1.2,2.4,1.8c1.9,1.4,3.7,2.9,5.6,4.4c0.7,0.6,1.5,1.2,2.2,1.8
			c0,0,0,0,0.1,0.1H33c0.4,0,0.7,0,1.1,0c-3.5-2.7-6.9-5.4-10.4-8c-0.2-0.1-0.4-0.3-0.6-0.4c-0.1,0-0.1-0.1-0.2-0.1
			c-0.2-0.1-0.4-0.3-0.6-0.4c-0.2,0.1-0.4,0.3-0.6,0.4c-0.1,0-0.1,0.1-0.2,0.1C21.4,8.9,21.2,9,21,9.1c-3.5,2.6-7,5.3-10.4,8
			c0.4,0,0.7,0,1.1,0H12z"/>
	</g>
	<g class="st2">
		<path class="st0" d="M27.6,13.3c1.6,1.3,3.3,2.6,4.9,3.8c-3.4,0-6.8,0-10.2,0c-3.4,0-6.8,0-10.2,0c2.5-1.9,4.9-3.9,7.4-5.7
			c-1.8,1.5-5.9,5-5.9,5.2c0.1,0.3,17.3,0.3,17.4,0C31.1,16.5,29.3,14.9,27.6,13.3z"/>
		<path class="st0" d="M33.6,17.3C33.6,17.3,33.6,17.3,33.6,17.3C33.6,17.3,33.6,17.3,33.6,17.3z"/>
		<path class="st0" d="M11.3,19.3c-0.2-0.1-0.3-0.6,0.1-0.7c0.4-0.1,2.9-0.2,3,0.1c0.1,0.3-0.4,0.6-0.5,0.6c0.3,0,0.9,0,0.9,0l0-0.8
			l-4.1,0l0,0.8L11.3,19.3z"/>
		<path class="st0" d="M17.7,19.3c-0.2-0.1-0.3-0.6,0.1-0.7c0.4-0.1,2.9-0.2,3,0.1c0.1,0.3-0.4,0.6-0.5,0.6c0.3,0,0.9,0,0.9,0l0-0.8
			l-4.1,0l0,0.8L17.7,19.3z"/>
		<path class="st0" d="M24,19.3c-0.2-0.1-0.3-0.6,0.1-0.7c0.4-0.1,2.9-0.2,3,0.1c0.1,0.3-0.4,0.6-0.5,0.6c0.3,0,0.9,0,0.9,0l0-0.8
			l-4.1,0l0,0.8L24,19.3z"/>
		<path class="st0" d="M30.4,19.3c-0.2-0.1-0.3-0.6,0.1-0.7c0.4-0.1,2.9-0.2,3,0.1c0.1,0.3-0.4,0.6-0.5,0.6c0.3,0,0.9,0,0.9,0l0-0.8
			l-4.1,0l0,0.8L30.4,19.3z"/>
		<path class="st0" d="M11.3,31.1c-0.2,0.1-0.3,0.6,0.1,0.7c0.4,0.1,2.9,0.2,3-0.1c0.1-0.3-0.4-0.6-0.5-0.6c0.3,0,0.9,0,0.9,0l0,0.8
			l-4.1,0l0-0.8L11.3,31.1z"/>
		<path class="st0" d="M17.7,31.1c-0.2,0.1-0.3,0.6,0.1,0.7c0.4,0.1,2.9,0.2,3-0.1c0.1-0.3-0.4-0.6-0.5-0.6c0.3,0,0.9,0,0.9,0l0,0.8
			l-4.1,0l0-0.8L17.7,31.1z"/>
		<path class="st0" d="M24,31.1c-0.2,0.1-0.3,0.6,0.1,0.7c0.4,0.1,2.9,0.2,3-0.1c0.1-0.3-0.4-0.6-0.5-0.6c0.3,0,0.9,0,0.9,0l0,0.8
			l-4.1,0l0-0.8L24,31.1z"/>
		<path class="st0" d="M30.4,31.1c-0.2,0.1-0.3,0.6,0.1,0.7c0.4,0.1,2.9,0.2,3-0.1c0.1-0.3-0.4-0.6-0.5-0.6c0.3,0,0.9,0,0.9,0l0,0.8
			l-4.1,0l0-0.8L30.4,31.1z"/>
		<path class="st0" d="M35.1,33.1c-2,0-4,0-6.1,0c-2.3,0-4.5,0-6.8,0c-2.3,0-4.5,0-6.8,0c-2,0-4,0-6.1,0c0-0.3,0-0.6,0-0.9
			c0,0,0-0.1,0-0.1c0,0,0.1,0.8,0.3,0.8c0.2,0.1,25,0.1,25.1,0.1c0.1-0.1,0.2-0.9,0.2-0.9c0,0,0,0.1,0,0.1
			C35.1,32.4,35.1,32.7,35.1,33.1z"/>
		<path class="st0" d="M31.5,31c-0.3,0-0.5,0-0.8,0c0-0.9,0-1.7,0-2.6c0-1.2,0-2.3,0-3.4c0-1.1,0-2.3,0-3.4c0-0.7,0-1.4,0-2.1
			c0.3,0,0.6,0,0.9,0c-0.2,0-0.6,0.4-0.7,0.7c-0.1,0.4-0.2,9.8,0.1,10.4C31.1,30.8,31.3,30.9,31.5,31z"/>
		<path class="st0" d="M32.6,30.5c0.3-0.5,0.2-10,0.1-10.4c-0.1-0.4-0.5-0.7-0.7-0.7h0c0.4,0,0.7,0,1.1,0c0,0.7,0,1.4,0,2.1
			c0,1.1,0,2.3,0,3.4c0,1.1,0,2.3,0,3.4c0,0.9,0,1.7,0,2.6c-0.3,0-0.6,0-1,0C32.2,30.9,32.4,30.8,32.6,30.5z"/>
		<path class="st0" d="M26.2,30.5c0.3-0.5,0.2-10,0.1-10.4c-0.1-0.4-0.5-0.7-0.7-0.7h0c0.4,0,0.7,0,1.1,0c0,0.7,0,1.4,0,2.1
			c0,1.1,0,2.3,0,3.4c0,1.1,0,2.3,0,3.4c0,0.9,0,1.7,0,2.6c-0.3,0-0.6,0-1,0C25.8,30.9,26,30.8,26.2,30.5z"/>
		<path class="st0" d="M20.4,31c-0.3,0-0.6,0-1,0h0c0.1-0.1,0.3-0.2,0.5-0.5c0.3-0.5,0.2-10,0.1-10.4c-0.1-0.4-0.5-0.7-0.7-0.7h0
			c0.1,0,0.1,0,0.2,0c0.3,0,0.6,0,0.9,0c0,0.7,0,1.4,0,2.1c0,1.1,0,2.3,0,3.4c0,1.1,0,2.3,0,3.4C20.4,29.3,20.4,30.1,20.4,31z"/>
		<path class="st0" d="M12.8,31.1L12.8,31.1L12.8,31.1C12.7,31.1,12.8,31.1,12.8,31.1C12.8,31.1,12.8,31.1,12.8,31.1z"/>
		<path class="st0" d="M14,31c-0.3,0-0.6,0-1,0h0c0.1-0.1,0.3-0.2,0.5-0.5c0.3-0.5,0.2-10,0.1-10.4c-0.1-0.4-0.5-0.7-0.7-0.7h0h0
			c0.1,0,0.1,0,0.2,0c0.3,0,0.6,0,0.9,0c0,0.7,0,1.4,0,2.1c0,1.1,0,2.3,0,3.4c0,1.1,0,2.3,0,3.4C14,29.3,14,30.1,14,31z"/>
		<path class="st0" d="M25.2,31L25.2,31c-0.3,0-0.7,0-1,0c0-0.9,0-1.7,0-2.6c0-1.2,0-2.3,0-3.4c0-1.1,0-2.3,0-3.4c0-0.7,0-1.4,0-2.1
			c0.3,0,0.6,0,0.9,0c0.1,0,0.1,0,0.2,0l0,0h0c-0.2,0-0.6,0.4-0.7,0.7c-0.1,0.4-0.2,9.8,0.1,10.4C24.9,30.8,25.1,30.9,25.2,31z"/>
		<path class="st0" d="M18.9,31c-0.3,0-0.6,0-0.9,0c0-0.9,0-1.7,0-2.6c0-1.2,0-2.3,0-3.4c0-1.1,0-2.3,0-3.4c0-0.7,0-1.4,0-2.1
			c0.3,0,0.7,0,1,0c-0.2,0-0.6,0.4-0.7,0.7c-0.1,0.4-0.2,9.8,0.1,10.4C18.5,30.8,18.7,30.9,18.9,31z"/>
		<path class="st0" d="M12,20.1c-0.1,0.4-0.2,9.8,0.1,10.4c0.2,0.3,0.3,0.4,0.5,0.5c-0.3,0-0.6,0-1,0c0-0.9,0-1.7,0-2.6
			c0-1.2,0-2.3,0-3.4c0-1.1,0-2.3,0-3.4c0-0.7,0-1.4,0-2.1c0.4,0,0.7,0,1.1,0h0C12.5,19.4,12.1,19.8,12,20.1z"/>
		<path class="st0" d="M12.8,31.1L12.8,31.1L12.8,31.1C12.7,31.1,12.8,31.1,12.8,31.1C12.8,31.1,12.8,31.1,12.8,31.1z"/>
	</g>
	<g>
		<path class="st0" d="M36.9,33.2C36.9,33.2,36.9,33.1,36.9,33.2c-0.1-0.1-0.1-0.1-0.2-0.1c-0.5,0-1,0-1.5,0c0-0.3,0-0.6,0-0.9
			c0-0.1,0-0.1,0-0.2c0,0,0-0.1,0-0.1c0,0-0.1,0-0.1,0c0,0,0,0,0,0c-0.4,0-0.8,0-1.2,0c0-0.1,0-0.2,0-0.3c0-0.1,0-0.3,0-0.4
			c0,0,0-0.1,0-0.1c0,0-0.1,0-0.1,0c0,0,0,0,0,0c-0.2,0-0.4,0-0.6,0c0-0.9,0-1.7,0-2.6c0-1.2,0-2.3,0-3.4c0-1.1,0-2.3,0-3.4
			c0-0.7,0-1.4,0-2.1c0.2,0,0.4,0,0.6,0c0,0,0,0,0,0c0,0,0.1,0,0.1,0c0,0,0-0.1,0-0.1c0-0.2,0-0.5,0-0.7c0.4,0,0.8,0,1.2,0
			c0,0,0,0,0,0c0,0,0.1,0,0.1,0c0,0,0-0.1,0-0.1c0-0.1,0-0.1,0-0.2c0-0.3,0-0.6,0-0.9c0-0.1,0-0.1,0-0.2c0,0-0.1,0-0.1,0
			c-0.3,0-0.6,0-0.9,0c0,0,0,0-0.1-0.1c-0.8-0.6-1.5-1.3-2.3-1.9c-1.8-1.5-3.7-2.9-5.6-4.4c-0.9-0.7-1.9-1.4-2.8-2.1
			c-0.1-0.1-0.1-0.1-0.2-0.2c-0.1,0-0.1-0.1-0.2-0.1c-0.2-0.2-0.4-0.3-0.6-0.5c-0.1,0-0.1-0.1-0.2-0.1c-0.1,0-0.1,0.1-0.2,0.1
			c-0.2,0.2-0.4,0.3-0.6,0.5c-0.1,0-0.1,0.1-0.2,0.1c-0.1,0.1-0.1,0.1-0.2,0.2c-0.9,0.7-1.9,1.4-2.8,2.1c-1.9,1.4-3.7,2.9-5.6,4.4
			c-0.8,0.6-1.5,1.2-2.3,1.9c0,0,0,0-0.1,0.1c-0.3,0-0.6,0-0.9,0c0,0-0.1,0-0.1,0c0,0.1,0,0.1,0,0.2c0,0.3,0,0.6,0,0.9
			c0,0,0,0.1,0,0.2c0,0,0,0.1,0,0.1c0,0,0.1,0,0.1,0c0,0,0,0,0,0c0.4,0,0.8,0,1.2,0c0,0.2,0,0.5,0,0.7c0,0,0,0.1,0,0.1
			c0,0,0.1,0,0.1,0c0,0,0,0,0,0c0.2,0,0.4,0,0.6,0c0,0.7,0,1.4,0,2.1c0,1.1,0,2.3,0,3.4c0,1.1,0,2.3,0,3.4c0,0.9,0,1.7,0,2.6
			c-0.2,0-0.4,0-0.6,0c0,0,0,0,0,0c0,0-0.1,0-0.1,0c0,0,0,0.1,0,0.1c0,0.2,0,0.5,0,0.7c-0.4,0-0.8,0-1.2,0c0,0,0,0,0,0
			c0,0-0.1,0-0.1,0c0,0,0,0.1,0,0.1c0,0.1,0,0.1,0,0.2c0,0.3,0,0.6,0,0.9c-0.5,0-1,0-1.5,0c-0.1,0-0.1,0-0.2,0c0,0,0,0.1,0,0.1
			c0,0.8,0,1.6,0,2.3l0,0c0,0,0,0.1,0,0.1c0,0,0.1,0,0.1,0h0c1.3,0,2.5,0,3.8,0c3.5,0,7.1,0,10.6,0c3.5,0,7.1,0,10.6,0
			c1.3,0,2.5,0,3.8,0h0c0,0,0.1,0,0.1,0c0,0,0-0.1,0-0.1l0,0C36.9,34.8,36.9,34,36.9,33.2z M33.8,31.1c0,0.2,0,0.5,0,0.7
			c-0.2,0-0.5,0-0.7,0c-0.6,0-1.3,0-1.9,0h-1.3c0-0.1,0-0.3,0-0.4c0-0.1,0-0.2,0-0.3c0.2,0,0.4,0,0.6,0c0,0,0.1,0,0.1,0
			c0.3,0,0.6,0,1,0c0.1,0,0.1,0,0.2,0c0.4,0,0.8,0,1.3,0h0.1C33.4,31.1,33.6,31.1,33.8,31.1z M27.6,31.1c0,0,0-0.1,0-0.1
			c0,0-0.1,0-0.1,0c0,0,0,0,0,0c-0.2,0-0.4,0-0.6,0c0-0.9,0-1.7,0-2.6c0-1.2,0-2.3,0-3.4c0-1.1,0-2.3,0-3.4c0-0.7,0-1.4,0-2.1
			c0.2,0,0.4,0,0.6,0c0,0,0,0,0,0c0,0,0.1,0,0.1,0c0,0,0-0.1,0-0.1c0-0.2,0-0.5,0-0.7c0.7,0,1.5,0,2.2,0c0,0.1,0,0.3,0,0.4
			c0,0.1,0,0.2,0,0.3c0,0,0,0.1,0,0.1c0,0,0.1,0,0.1,0c0.2,0,0.4,0,0.6,0c0,0.7,0,1.4,0,2.1c0,1.1,0,2.3,0,3.4c0,1.1,0,2.3,0,3.4
			c0,0.9,0,1.7,0,2.6c-0.2,0-0.4,0-0.6,0c0,0-0.1,0-0.1,0c0,0,0,0.1,0,0.1c0,0.1,0,0.2,0,0.3c0,0.1,0,0.3,0,0.4c-0.7,0-1.5,0-2.2,0
			C27.6,31.6,27.6,31.4,27.6,31.1z M27.4,31.9h-1c-1,0-2,0-2.9,0c0-0.1,0-0.3,0-0.4c0-0.1,0-0.2,0-0.3c0.2,0,0.4,0,0.6,0
			c0,0,0.1,0,0.1,0c0.3,0,0.6,0,1,0c0.1,0,0.1,0,0.2,0c0.4,0,0.8,0,1.3,0h0.1c0.2,0,0.4,0,0.6,0C27.4,31.4,27.4,31.6,27.4,31.9z
			 M17.2,31.1c0.2,0,0.4,0,0.6,0H18c0.4,0,0.8,0,1.3,0c0.1,0,0.1,0,0.2,0c0.3,0,0.6,0,1,0c0,0,0.1,0,0.1,0c0.2,0,0.4,0,0.6,0
			c0,0.1,0,0.2,0,0.3c0,0.1,0,0.3,0,0.4c-1,0-2,0-2.9,0h-1C17.2,31.6,17.2,31.4,17.2,31.1z M17.1,31.9c-0.7,0-1.5,0-2.2,0
			c0-0.1,0-0.3,0-0.4c0-0.1,0-0.2,0-0.3c0,0,0-0.1,0-0.1c0,0-0.1,0-0.1,0c-0.2,0-0.4,0-0.6,0c0-0.9,0-1.7,0-2.6c0-1.2,0-2.3,0-3.4
			c0-1.1,0-2.3,0-3.4c0-0.7,0-1.4,0-2.1c0.2,0,0.4,0,0.6,0c0,0,0.1,0,0.1,0c0,0,0-0.1,0-0.1c0-0.1,0-0.2,0-0.3c0-0.1,0-0.3,0-0.4
			c0.7,0,1.5,0,2.2,0c0,0.2,0,0.5,0,0.7c0,0,0,0.1,0,0.1c0,0,0.1,0,0.1,0c0,0,0,0,0,0c0.2,0,0.4,0,0.6,0c0,0.7,0,1.4,0,2.1
			c0,1.1,0,2.3,0,3.4c0,1.1,0,2.3,0,3.4c0,0.9,0,1.7,0,2.6c-0.2,0-0.4,0-0.6,0c0,0,0,0,0,0c0,0-0.1,0-0.1,0c0,0,0,0.1,0,0.1
			C17,31.4,17,31.6,17.1,31.9z M17.2,18.5h1c1,0,2,0,2.9,0c0,0.1,0,0.3,0,0.4c0,0.1,0,0.2,0,0.3c-0.2,0-0.4,0-0.6,0
			c-0.1,0-0.1,0-0.2,0c-0.3,0-0.6,0-0.9,0c-0.1,0-0.1,0-0.2,0c-0.4,0-0.8,0-1.2,0h-0.2c-0.2,0-0.4,0-0.6,0
			C17.2,19,17.2,18.8,17.2,18.5z M18,28.4c0-1.2,0-2.3,0-3.4c0-1.1,0-2.3,0-3.4c0-0.7,0-1.4,0-2.1c0.4,0,0.8,0,1.2,0
			c0.1,0,0.1,0,0.2,0c0.3,0,0.6,0,0.9,0c0,0.7,0,1.4,0,2.1c0,1.1,0,2.3,0,3.4c0,1.1,0,2.3,0,3.4c0,0.9,0,1.7,0,2.6c-0.3,0-0.6,0-1,0
			c-0.1,0-0.1,0-0.2,0c-0.4,0-0.8,0-1.3,0C18,30.1,18,29.2,18,28.4z M21.2,31c0,0-0.1,0-0.1,0c-0.2,0-0.4,0-0.6,0c0-0.9,0-1.7,0-2.6
			c0-1.2,0-2.3,0-3.4c0-1.1,0-2.3,0-3.4c0-0.7,0-1.4,0-2.1c0.2,0,0.4,0,0.6,0c0,0,0.1,0,0.1,0c0,0,0-0.1,0-0.1c0-0.1,0-0.2,0-0.3
			c0-0.1,0-0.3,0-0.4c0,0,0.1,0,0.1,0c0.3,0,0.7,0,1,0s0.7,0,1,0c0,0,0.1,0,0.1,0c0,0.1,0,0.3,0,0.4c0,0.1,0,0.2,0,0.3
			c0,0,0,0.1,0,0.1c0,0,0.1,0,0.1,0c0.2,0,0.4,0,0.6,0c0,0.7,0,1.4,0,2.1c0,1.1,0,2.3,0,3.4c0,1.1,0,2.3,0,3.4c0,0.9,0,1.7,0,2.6
			c-0.2,0-0.4,0-0.6,0c0,0-0.1,0-0.1,0c0,0,0,0.1,0,0.1c0,0.1,0,0.2,0,0.3c0,0.1,0,0.3,0,0.4c-0.1,0-0.1,0-0.2,0c-0.3,0-0.6,0-0.9,0
			c-0.3,0-0.6,0-0.9,0c-0.1,0-0.1,0-0.2,0c0-0.1,0-0.3,0-0.4c0-0.1,0-0.2,0-0.3C21.2,31.1,21.2,31,21.2,31z M27.4,19.3
			c-0.2,0-0.4,0-0.6,0h-0.2c-0.4,0-0.8,0-1.2,0c-0.1,0-0.1,0-0.2,0c-0.3,0-0.6,0-0.9,0c-0.1,0-0.1,0-0.2,0c-0.2,0-0.4,0-0.6,0
			c0-0.1,0-0.2,0-0.3c0-0.1,0-0.3,0-0.4c1,0,2,0,2.9,0h1C27.4,18.8,27.4,19,27.4,19.3z M24.3,28.4c0-1.2,0-2.3,0-3.4
			c0-1.1,0-2.3,0-3.4c0-0.7,0-1.4,0-2.1c0.3,0,0.6,0,0.9,0c0.1,0,0.1,0,0.2,0c0.4,0,0.8,0,1.2,0c0,0.7,0,1.4,0,2.1
			c0,1.1,0,2.3,0,3.4c0,1.1,0,2.3,0,3.4c0,0.9,0,1.7,0,2.6c-0.4,0-0.8,0-1.3,0c-0.1,0-0.1,0-0.2,0c-0.3,0-0.6,0-1,0
			C24.3,30.1,24.3,29.3,24.3,28.4z M30.7,28.4c0-1.2,0-2.3,0-3.4c0-1.1,0-2.3,0-3.4c0-0.7,0-1.4,0-2.1c0.3,0,0.6,0,0.9,0
			c0.1,0,0.1,0,0.2,0c0.4,0,0.8,0,1.2,0c0,0.7,0,1.4,0,2.1c0,1.1,0,2.3,0,3.4c0,1.1,0,2.3,0,3.4c0,0.9,0,1.7,0,2.6
			c-0.4,0-0.8,0-1.3,0c-0.1,0-0.1,0-0.2,0c-0.3,0-0.6,0-1,0C30.7,30.1,30.7,29.3,30.7,28.4z M33.2,19.3H33c-0.4,0-0.8,0-1.2,0
			c-0.1,0-0.1,0-0.2,0c-0.3,0-0.6,0-0.9,0c-0.1,0-0.1,0-0.2,0c-0.2,0-0.4,0-0.6,0c0-0.1,0-0.2,0-0.3c0-0.1,0-0.3,0-0.4h1.3
			c0.9,0,1.8,0,2.7,0c0,0.1,0,0.2,0,0.3c0,0.1,0,0.3,0,0.4C33.6,19.3,33.4,19.3,33.2,19.3z M21,9.1c0.2-0.1,0.4-0.3,0.6-0.4
			c0.1,0,0.1-0.1,0.2-0.1c0.2-0.1,0.4-0.3,0.6-0.4c0.2,0.1,0.4,0.3,0.6,0.4c0.1,0,0.1,0.1,0.2,0.1c0.2,0.1,0.4,0.3,0.6,0.4
			c3.5,2.6,7,5.3,10.4,8c-0.4,0-0.7,0-1.1,0h-0.3c0,0,0,0-0.1-0.1c-0.7-0.6-1.4-1.2-2.2-1.8c-1.8-1.5-3.7-2.9-5.6-4.4
			c-0.8-0.6-1.6-1.2-2.4-1.8c0,0-0.1-0.1-0.1-0.1c0,0-0.1,0.1-0.1,0.1c-0.8,0.6-1.6,1.2-2.4,1.8c-1.9,1.4-3.7,2.9-5.6,4.4
			c-0.7,0.6-1.5,1.2-2.2,1.8c0,0,0,0-0.1,0.1h-0.3c-0.4,0-0.7,0-1.1,0C14,14.5,17.5,11.8,21,9.1z M32.5,17.2c-3.4,0-6.8,0-10.2,0
			c-3.4,0-6.8,0-10.2,0c3.4-2.6,6.8-5.3,10.2-7.9C25.8,11.9,29.1,14.5,32.5,17.2z M10.8,18.4c0,0-0.1,0-0.1,0c-0.4,0-0.8,0-1.2,0
			c0,0,0-0.1,0-0.1c0-0.3,0-0.6,0-0.9c0.2,0,0.5,0,0.7,0c0,0,0.1,0,0.1,0c0.5,0,1,0,1.4,0c0,0,0.1,0,0.1,0c1.2,0,2.5,0,3.7,0
			c2.3,0,4.5,0,6.8,0c2.3,0,4.5,0,6.8,0c1.2,0,2.5,0,3.7,0c0,0,0.1,0,0.1,0c0.5,0,1,0,1.4,0c0,0,0.1,0,0.1,0c0.2,0,0.5,0,0.7,0
			c0,0.3,0,0.6,0,0.9c0,0,0,0.1,0,0.1c-0.4,0-0.8,0-1.2,0c0,0-0.1,0-0.1,0c-0.3,0-0.6,0-0.9,0c-0.8,0-1.6,0-2.4,0h-0.7h-0.1
			c-0.7,0-1.5,0-2.2,0c0,0-0.1,0-0.1,0c-1.3,0-2.6,0-3.9,0h-0.1c-0.4,0-0.7,0-1.1,0s-0.7,0-1.1,0h-0.1c-1.3,0-2.6,0-3.9,0
			c0,0-0.1,0-0.1,0c-0.7,0-1.5,0-2.2,0h-0.1h-0.7C13,18.4,11.9,18.4,10.8,18.4z M11.4,19.3c-0.2,0-0.4,0-0.6,0c0-0.2,0-0.5,0-0.7
			c0.9,0,1.8,0,2.7,0h1.3c0,0.2,0,0.3,0,0.4c0,0.1,0,0.2,0,0.3c-0.2,0-0.4,0-0.6,0c-0.1,0-0.1,0-0.2,0c-0.3,0-0.6,0-0.9,0
			c-0.1,0-0.1,0-0.2,0c-0.4,0-0.8,0-1.2,0H11.4z M11.6,28.4c0-1.2,0-2.3,0-3.4c0-1.1,0-2.3,0-3.4c0-0.7,0-1.4,0-2.1
			c0.4,0,0.8,0,1.2,0c0.1,0,0.1,0,0.2,0c0.3,0,0.6,0,0.9,0c0,0.7,0,1.4,0,2.1c0,1.1,0,2.3,0,3.4c0,1.1,0,2.3,0,3.4
			c0,0.9,0,1.7,0,2.6c-0.3,0-0.6,0-1,0c-0.1,0-0.1,0-0.2,0c-0.4,0-0.8,0-1.3,0C11.6,30.1,11.6,29.2,11.6,28.4z M11.4,31.1h0.1
			c0.4,0,0.8,0,1.3,0c0.1,0,0.1,0,0.2,0c0.3,0,0.6,0,1,0c0,0,0.1,0,0.1,0c0.2,0,0.4,0,0.6,0c0,0.1,0,0.2,0,0.3c0,0.1,0,0.3,0,0.4
			h-1.3c-0.9,0-1.8,0-2.7,0c0-0.2,0-0.5,0-0.7C11,31.1,11.2,31.1,11.4,31.1z M10.7,32c0,0,0.1,0,0.1,0c1.1,0,2.2,0,3.3,0h0.7
			c0,0,0.1,0,0.1,0c0.7,0,1.5,0,2.2,0h0.1c1.3,0,2.6,0,3.9,0c0,0,0.1,0,0.1,0c0.4,0,0.7,0,1.1,0c0.4,0,0.7,0,1.1,0c0,0,0,0,0,0
			c0,0,0,0,0,0c1.3,0,2.6,0,3.9,0h0.1c0.7,0,1.5,0,2.2,0c0,0,0,0,0,0c0,0,0,0,0,0h0.7c1.1,0,2.2,0,3.3,0c0,0,0.1,0,0.1,0
			c0.4,0,0.8,0,1.2,0c0,0,0,0.1,0,0.1c0,0.3,0,0.6,0,0.9c-2,0-4,0-6.1,0c-2.3,0-4.5,0-6.8,0c-2.3,0-4.5,0-6.8,0c-2,0-4,0-6.1,0
			c0-0.3,0-0.6,0-0.9c0,0,0-0.1,0-0.1C9.9,32,10.3,32,10.7,32z M29.1,35.5c-2.3,0-4.5,0-6.8,0c-2.3,0-4.5,0-6.8,0
			c-2.6,0-5.1,0-7.7,0c0-0.8,0-1.6,0-2.3c0.5,0,1,0,1.5,0c0,0,0.1,0,0.1,0c0.7,0,1.5,0,2.2,0c3.5,0,7.1,0,10.6,0c3.5,0,7.1,0,10.6,0
			c0.7,0,1.5,0,2.2,0c0,0,0.1,0,0.1,0c0.5,0,1,0,1.5,0c0,0.8,0,1.6,0,2.3C34.2,35.5,31.6,35.5,29.1,35.5z"/>
		<path class="st0" d="M21.6,12.4c-0.1,0.1-0.3,0.1-0.4,0.2c-0.1,0.1-0.2,0.2-0.3,0.4c-0.1,0.1-0.2,0.3-0.2,0.4
			c0,0.2-0.1,0.3-0.1,0.5l0,0.1c0,0,0,0.1,0,0.1c0,0.1,0,0.2,0.1,0.2c0.1,0.2,0.1,0.3,0.2,0.4c0.1,0.1,0.2,0.3,0.3,0.4
			c0.1,0.1,0.3,0.2,0.4,0.2c0.1,0.1,0.3,0.1,0.5,0.1c0.1,0,0.1,0,0.2,0l0,0h0h0h0l0,0l0.1,0c0,0,0.1,0,0.1,0c0.3,0,0.6-0.1,0.8-0.3
			c0.2-0.1,0.4-0.3,0.5-0.5c0.1-0.2,0.2-0.3,0.2-0.5c0,0,0-0.1,0-0.1c0,0,0-0.1,0-0.1c0,0,0-0.1,0-0.1c0,0,0,0,0-0.1
			c0-0.1,0-0.1,0-0.1v0c0,0,0,0,0-0.1c0,0,0,0,0-0.1c0,0,0,0,0-0.1c0,0,0-0.1,0-0.1c0,0,0-0.1,0-0.1c0-0.1-0.1-0.3-0.2-0.5
			c-0.1-0.2-0.3-0.3-0.5-0.5c-0.2-0.1-0.5-0.2-0.8-0.3c0,0-0.1,0-0.1,0l-0.1,0l0,0h0h0l0,0h0c-0.1,0-0.2,0-0.2,0
			C21.9,12.3,21.8,12.3,21.6,12.4z M22.3,12.3c0,0,0.1,0,0.1,0c0,0,0.1,0,0.1,0c0.3,0,0.5,0.1,0.7,0.3c0.2,0.1,0.3,0.3,0.4,0.5
			c0.1,0.2,0.1,0.3,0.2,0.4c0,0,0,0.1,0,0.1c0,0,0,0.1,0,0.1c0,0,0,0,0,0.1c0,0,0,0,0,0.1c0,0.1,0,0.1,0,0.1c0,0,0,0,0,0.1
			c0,0,0,0,0,0.1c0,0,0,0,0,0.1c0,0,0,0,0,0.1c0,0,0,0.1,0,0.1c0,0.1-0.1,0.3-0.2,0.4c0,0-0.1,0.1-0.1,0.1c0,0-0.1,0.1-0.1,0.1
			c0,0-0.1,0.1-0.1,0.1c0,0-0.1,0.1-0.1,0.1c-0.2,0.1-0.4,0.2-0.7,0.2c0,0-0.1,0-0.1,0l0,0l0,0c0,0,0,0,0,0h0h0h0
			c-0.1,0-0.1,0-0.2,0c-0.1,0-0.3-0.1-0.4-0.1c-0.1-0.1-0.3-0.1-0.4-0.2c-0.1-0.1-0.2-0.2-0.3-0.3c-0.1-0.1-0.2-0.3-0.2-0.4
			c0-0.1-0.1-0.3-0.1-0.4c0-0.2,0-0.3,0.1-0.5c0-0.1,0.1-0.3,0.2-0.4c0.1-0.1,0.2-0.2,0.3-0.3c0.1-0.1,0.2-0.2,0.4-0.2
			c0.1-0.1,0.3-0.1,0.4-0.1C22.2,12.4,22.2,12.4,22.3,12.3z"/>
		<path class="st0" d="M22.3,11.8L22.3,11.8L22.3,11.8c-0.1,0-0.2,0-0.3,0c-0.2,0-0.4,0.1-0.6,0.2c-0.2,0.1-0.4,0.2-0.5,0.3
			c-0.2,0.1-0.3,0.3-0.4,0.4c-0.1,0.2-0.2,0.4-0.3,0.5c-0.1,0.2-0.1,0.4-0.1,0.6l0,0.2c0,0.1,0,0.1,0,0.2l0,0.1c0,0,0,0.1,0,0.1
			l0,0.1c0.1,0.2,0.2,0.4,0.3,0.5c0.1,0.2,0.3,0.3,0.4,0.4c0.2,0.1,0.3,0.2,0.5,0.3c0.2,0.1,0.4,0.1,0.6,0.2c0.1,0,0.2,0,0.3,0l0,0
			h0h0h0l0,0l0.1,0c0,0,0.1,0,0.1,0c0.4,0,0.7-0.2,1-0.3c0.3-0.2,0.5-0.4,0.6-0.6c0.1-0.2,0.2-0.4,0.3-0.6c0,0,0-0.1,0-0.1
			c0,0,0-0.1,0-0.1c0,0,0-0.1,0-0.1c0,0,0-0.1,0-0.1c0-0.1,0-0.1,0-0.1v0c0,0,0-0.1,0-0.1c0,0,0-0.1,0-0.1c0,0,0-0.1,0-0.1
			c0,0,0-0.1,0-0.1c0,0,0-0.1,0-0.1c-0.1-0.2-0.1-0.4-0.3-0.6c-0.1-0.2-0.3-0.4-0.6-0.6c-0.3-0.2-0.6-0.3-1-0.3c0,0-0.1,0-0.1,0
			L22.3,11.8L22.3,11.8C22.3,11.8,22.3,11.8,22.3,11.8L22.3,11.8z M22.4,11.9L22.4,11.9c0.1,0,0.2,0,0.2,0c0.3,0,0.7,0.2,0.9,0.3
			c0.2,0.2,0.4,0.4,0.5,0.6c0.1,0.2,0.2,0.4,0.2,0.6c0,0,0,0.1,0,0.1c0,0,0,0.1,0,0.1c0,0,0,0.1,0,0.1c0,0,0,0.1,0,0.1
			c0,0.1,0,0.1,0,0.1c0,0,0,0.1,0,0.1c0,0,0,0,0,0.1c0,0,0,0.1,0,0.1c0,0,0,0.1,0,0.1c0,0,0,0.1,0,0.1c0,0.2-0.1,0.3-0.3,0.5
			c0,0-0.1,0.1-0.1,0.1c0,0-0.1,0.1-0.1,0.1c0,0-0.1,0.1-0.1,0.1c-0.1,0-0.1,0.1-0.2,0.1c-0.2,0.2-0.5,0.3-0.9,0.3c0,0-0.1,0-0.1,0
			l-0.1,0l0,0l0,0h0l0,0l0,0c-0.1,0-0.2,0-0.3,0c-0.2,0-0.3-0.1-0.5-0.1c-0.2-0.1-0.3-0.2-0.5-0.3c-0.1-0.1-0.3-0.3-0.4-0.4
			c-0.1-0.2-0.2-0.3-0.3-0.5c-0.1-0.2-0.1-0.4-0.1-0.6c0-0.2,0-0.4,0.1-0.6c0.1-0.2,0.1-0.4,0.2-0.5c0.1-0.2,0.2-0.3,0.4-0.4
			c0.2-0.1,0.3-0.2,0.5-0.3c0.2-0.1,0.4-0.1,0.5-0.2C22.1,11.9,22.2,11.9,22.4,11.9C22.3,11.9,22.3,11.9,22.4,11.9z"/>
	</g>
	<path class="st3" d="M31.8,20.4c0.4,0,0.5,9.8,0,9.7C31.3,30.1,31.4,20.4,31.8,20.4z"/>
	<path class="st3" d="M25.6,20.4c0.4,0,0.5,9.8,0,9.7C25.1,30.1,25.2,20.4,25.6,20.4z"/>
	<path class="st3" d="M19.2,20.4c0.4,0,0.5,9.8,0,9.7C18.6,30.1,18.8,20.4,19.2,20.4z"/>
	<path class="st3" d="M12.8,20.4c0.4,0,0.5,9.8,0,9.7C12.3,30.1,12.4,20.4,12.8,20.4z"/>
	<path class="st4" d="M36.8,35.2c0-0.2-0.4-1.5-0.5-1.6c-0.1-0.1-27.8-0.2-28.1,0C8.1,33.7,8,34,7.9,34.3c0-0.4,0-0.8,0-1.2
		c0.5,0,1,0,1.5,0c0,0,0.1,0,0.1,0c0.7,0,1.5,0,2.2,0c3.5,0,7.1,0,10.6,0c3.5,0,7.1,0,10.6,0c0.7,0,1.5,0,2.2,0c0,0,0.1,0,0.1,0
		c0.5,0,1,0,1.5,0C36.7,33.9,36.8,34.5,36.8,35.2z"/>
	<path class="st4" d="M23.6,13c-0.1,0.7-0.3,1.5-0.4,2.2c-0.2,0.1-0.4,0.2-0.7,0.2c0,0-0.1,0-0.1,0l0,0l0,0c0,0,0,0,0,0h0h0h0
		c-0.1,0-0.1,0-0.2,0c-0.1,0-0.2,0-0.3-0.1c-0.2-0.6-0.6-1.5-0.9-2.2c0,0,0-0.1,0.1-0.1c0.1-0.1,0.2-0.2,0.3-0.3
		c0.1-0.1,0.2-0.2,0.4-0.2c0,0,0.1,0,0.1,0l0.5,2l0.1-2.1c0,0,0,0,0.1,0c0.3,0,0.5,0.1,0.7,0.3C23.4,12.7,23.5,12.9,23.6,13z"/>
</g>
</svg>
